<?xml version="1.0" encoding="UTF-8" standalone="no"?>
<svg
   xmlns:dc="http://purl.org/dc/elements/1.1/"
   xmlns:cc="http://web.resource.org/cc/"
   xmlns:rdf="http://www.w3.org/1999/02/22-rdf-syntax-ns#"
   xmlns:svg="http://www.w3.org/2000/svg"
   xmlns="http://www.w3.org/2000/svg"
   xmlns:xlink="http://www.w3.org/1999/xlink"
   xmlns:sodipodi="http://sodipodi.sourceforge.net/DTD/sodipodi-0.dtd"
   xmlns:inkscape="http://www.inkscape.org/namespaces/inkscape"
   version="1.1"
   id="Layer_1"
   x="0px"
   y="0px"
   width="660.17px"
   height="720px"
   viewBox="0 0 660.17 720"
   enable-background="new 0 0 660.17 720"
   xml:space="preserve"
   sodipodi:version="0.32"
   inkscape:version="0.45.1"
   sodipodi:docname="locl.svg"
   sodipodi:docbase="/Users/lindberg/Projects/Wiki/seals"
   inkscape:output_extension="org.inkscape.output.svg.inkscape"
   inkscape:export-filename="/Users/lindberg/Projects/Wiki/seals/locl.png"
   inkscape:export-xdpi="90"
   inkscape:export-ydpi="90"><metadata
   id="metadata64"><rdf:RDF><cc:Work
       rdf:about=""><dc:format>image/svg+xml</dc:format><dc:type
         rdf:resource="http://purl.org/dc/dcmitype/StillImage" /></cc:Work></rdf:RDF></metadata><defs
   id="defs62">
	

		<defs
   id="defs7">
			<rect
   id="SVGID_1_"
   width="660.16998"
   height="720"
   x="0"
   y="0" />
		</defs>
		<clipPath
   id="SVGID_2_">
			<use
   xlink:href="#SVGID_1_"
   overflow="visible"
   id="use11"
   style="overflow:visible"
   x="0"
   y="0"
   width="660.16998"
   height="720" />
		</clipPath>
	</defs><sodipodi:namedview
   inkscape:window-height="581"
   inkscape:window-width="697"
   inkscape:pageshadow="2"
   inkscape:pageopacity="0.0"
   guidetolerance="10.0"
   gridtolerance="10.0"
   objecttolerance="10.0"
   borderopacity="1.0"
   bordercolor="#666666"
   pagecolor="#ffffff"
   id="base"
   inkscape:zoom="0.525"
   inkscape:cx="330.08499"
   inkscape:cy="360"
   inkscape:window-x="58"
   inkscape:window-y="22"
   inkscape:current-layer="Layer_1" />
<g
   id="g4214"><polygon
     style="fill:#000000;fill-opacity:1"
     id="polygon13"
     points="652.936,450.644 6.449,450.644 6.449,456.837 10.862,456.837 10.862,480.019 647.642,480.019 647.642,456.837 652.936,456.837 652.936,450.644 "
     clip-path="url(#SVGID_2_)" /><path
     style="fill:#000000;fill-opacity:1"
     id="path15"
     d="M 648.603,405.956 C 651.307,404.147 653.111,401.099 653.111,397.604 C 653.111,392.064 648.623,387.584 643.092,387.584 C 637.567,387.584 633.077,392.063 633.077,397.604 C 633.077,401.098 634.872,404.147 637.575,405.956 L 631.68,405.956 L 631.68,421.288 L 618.986,421.288 C 581.429,381.667 535.842,349.734 484.867,328.03 L 484.867,318.447 L 484.858,318.447 L 484.858,315.189 C 483.314,307.016 475.919,308.238 475.919,308.238 L 475.919,305.038 L 464.768,304.593 C 453.499,303.93 453.499,282.065 461.781,282.065 C 468.471,282.065 469.442,268.845 462.912,268.22 L 467.249,268.22 L 467.249,259.944 L 441.278,259.944 L 441.278,268.164 L 425.075,268.164 L 425.075,195.72 L 433.219,195.72 L 433.219,189.404 L 425.075,189.404 L 425.075,170.172 C 425.279,170.029 425.397,169.906 425.416,169.793 C 425.539,168.94 430.999,156.933 430.999,156.933 C 428.025,157.965 419.422,164.86 419.422,164.86 L 419.413,164.955 C 414.342,133.165 393.031,106.782 364.171,94.718 L 293.442,94.718 C 264.678,106.744 243.423,132.976 238.253,164.643 C 236.79,163.487 229.626,157.872 226.97,156.934 C 226.97,156.934 232.425,168.942 232.543,169.794 L 232.543,189.405 L 223.93,189.405 L 223.93,195.721 L 232.543,195.721 L 232.543,268.164 L 218.386,268.164 L 218.386,259.944 L 192.396,259.944 L 192.396,268.22 L 196.752,268.22 C 190.218,268.845 191.184,282.065 197.875,282.065 C 206.156,282.065 206.156,303.93 194.901,304.593 L 183.75,305.038 L 183.75,308.238 C 183.75,308.238 176.35,307.016 174.806,315.189 L 174.915,326.344 C 122.349,348.068 75.393,380.634 36.866,421.287 L 27.955,421.287 L 27.955,405.955 L 22.07,405.955 C 24.788,404.146 26.559,401.098 26.559,397.603 C 26.559,392.063 22.089,387.583 16.554,387.583 C 11.019,387.583 6.535,392.062 6.535,397.603 C 6.535,401.097 8.32,404.146 11.038,405.955 L 0,405.955 L 6.458,421.287 L 6.449,421.287 L 6.449,440.946 L 652.936,440.946 L 652.936,421.807 L 652.964,421.807 L 659.645,405.954 L 648.603,405.954 M 391.051,210.483 L 409.493,210.483 L 409.493,254.772 L 391.051,254.772 L 391.051,210.483 z M 310.914,210.483 L 346.231,210.483 L 346.231,254.772 L 310.914,254.772 L 310.914,210.483 z M 248.708,210.483 L 267.16,210.483 L 267.16,254.772 L 248.708,254.772 L 248.708,210.483 L 248.708,210.483 z "
     clip-path="url(#SVGID_2_)" /><path
     style="fill:#000000;fill-opacity:1"
     id="path17"
     d="M 327.718,0.861 C 321.34,5.814 311.165,18.201 318.419,29.592 L 318.944,30.406 L 339.276,30.406 L 339.792,29.573 C 339.877,29.44 348.102,15.624 329.91,0.88 L 328.826,0 L 327.718,0.861 M 319.446,21.137 C 319.446,13.703 326.079,7.027 328.745,4.641 C 336.292,11.203 338.266,17.235 338.266,21.468 C 338.266,24.034 337.627,25.871 337.191,26.875 L 321.026,26.875 C 319.981,24.962 319.446,23.03 319.446,21.137"
     clip-path="url(#SVGID_2_)" /><path
     style="fill:#000000;fill-opacity:1"
     id="path19"
     d="M 360.242,81.724 C 360.242,81.724 356.866,77.406 351.388,77.908 C 350.053,78.021 342.652,73.031 339.347,62.15 L 345.54,62.15 C 348.092,62.15 350.147,60.095 350.147,57.557 C 350.147,55.019 348.092,52.954 345.54,52.954 L 337.832,52.954 C 337.591,48.002 338.154,42.32 340.072,35.758 C 341.876,35.758 343.334,34.299 343.334,32.5 C 343.334,30.691 341.876,29.242 340.072,29.242 L 316.938,29.242 C 315.143,29.242 313.68,30.691 313.68,32.5 C 313.68,34.299 315.143,35.758 316.938,35.758 L 317.482,35.758 C 317.491,35.758 317.491,35.758 317.491,35.777 C 318.102,38.182 319.508,45.19 319.38,52.955 L 312.941,52.955 C 310.399,52.955 308.334,55.019 308.334,57.558 C 308.334,60.097 310.398,62.151 312.941,62.151 L 318.391,62.151 C 316.938,68.846 313.708,75.002 307.151,78.165 C 301.531,78.165 299.746,82.909 299.746,82.909 L 290.252,77.871 L 292.625,89.727 L 364.987,89.433 L 367.942,77.871 L 360.242,81.724"
     clip-path="url(#SVGID_2_)" /><path
     style="fill:#000000;fill-opacity:1"
     id="path21"
     d="M 26.028,575.341 C 25.824,576.496 25.611,577.756 25.611,579.11 C 25.611,580.797 26.123,581.952 29.38,582.16 L 35.568,582.463 L 35.246,585.408 C 30.634,585.304 25.918,585.086 21.316,585.086 C 16.591,585.086 11.983,585.304 6.43,585.408 L 6.847,582.463 L 12.188,582.16 C 14.082,582.047 15.128,581.743 15.649,581.213 C 16.487,580.38 17.221,578.59 18.267,571.989 L 27.287,517.368 L 15.545,517.368 C 12.605,517.368 7.69,517.898 7.06,518.741 C 6.217,519.887 5.587,521.677 5.17,523.448 L 3.598,529.735 L 0.563,529.735 L 2.434,512.539 C 12.401,512.662 22.363,512.86 32.211,512.86 C 42.064,512.86 51.918,512.662 61.558,512.539 L 58.736,529.735 L 55.796,529.735 L 56.222,523.031 C 56.322,520.928 56.009,519.357 55.692,518.741 C 55.275,517.898 49.196,517.368 43.528,517.368 L 35.89,517.368 L 26.028,575.341"
     clip-path="url(#SVGID_2_)" /><path
     style="fill:#000000;fill-opacity:1"
     id="path23"
     d="M 76.345,556.269 L 76.771,556.478 C 79.688,552.803 82.424,549.129 85.886,545.891 C 93.012,539.281 101.08,534.565 104.745,534.565 C 107.482,534.565 108.102,536.459 108.102,538.23 C 108.102,540.758 107.591,543.372 106.947,546.099 L 100.238,572.926 C 99.821,574.498 99.514,575.862 99.514,577.121 C 99.514,578.276 100.134,579.224 100.868,579.224 C 102.132,579.224 104.855,577.652 107.269,576.071 L 109.992,574.3 L 111.043,576.185 C 106.947,579.225 103.382,581.838 99.618,584.036 C 98.036,584.992 95.953,586.024 94.372,586.024 C 92.17,586.024 91.124,584.453 91.124,581.838 C 91.124,579.329 91.862,576.185 92.492,573.884 L 97.824,553.334 C 98.88,549.243 99.406,545.787 99.406,543.893 C 99.406,542.425 98.251,541.687 97.1,541.687 C 92.697,541.687 81.901,551.867 77.181,560.352 C 72.991,567.899 71.518,578.392 70.685,584.358 L 63.45,586.024 L 62.711,584.888 C 65.448,576.705 69.742,556.574 71.944,544.414 L 76.347,519.888 C 76.56,518.836 76.56,517.899 76.56,517.265 C 76.56,515.172 74.884,514.86 72.99,514.86 L 67.957,514.86 L 68.374,512.663 C 71.002,512.445 73.933,512.018 76.868,511.403 C 79.799,510.674 82.427,509.623 85.14,508.25 L 86.413,509.405 L 76.345,556.269"
     clip-path="url(#SVGID_2_)" /><path
     style="fill:#000000;fill-opacity:1"
     id="path25"
     d="M 127.079,562.651 C 126.44,565.909 126.236,568.835 126.236,571.458 C 126.236,577.017 128.755,581.316 134.622,581.316 C 138.921,581.316 145.01,577.755 148.566,575.227 L 151.08,573.465 L 151.923,575.444 C 146.26,580.16 137.87,586.239 131.066,586.239 C 122.359,586.239 118.273,581.42 118.273,572.83 C 118.273,567.896 120.058,560.567 121.512,555.737 C 122.989,550.908 125.295,546.202 129.386,543.057 C 133.898,539.601 140.811,534.563 146.777,534.563 C 151.711,534.563 155.901,537.176 155.901,542.527 C 155.901,550.709 149.618,554.999 142.904,557.944 C 140.499,558.995 138.089,559.932 135.683,560.567 L 127.079,562.651 M 127.604,560.246 C 131.577,559.413 135.359,558.258 139.024,556.572 C 143.531,554.488 148.148,549.659 148.148,544.413 C 148.148,541.06 146.368,538.968 142.797,538.968 C 141.429,538.968 139.132,539.697 137.977,540.228 C 132.314,542.841 129.909,550.815 128.54,556.364 L 127.604,560.246 z "
     clip-path="url(#SVGID_2_)" /><path
     style="fill:#000000;fill-opacity:1"
     id="path27"
     d="M 211.558,580.161 C 214.498,580.899 217.533,581.004 220.365,581.004 C 228.954,581.004 241.748,580.692 243.528,579.006 C 244.579,578.068 245.209,574.498 245.73,572.311 L 246.994,567.065 L 250.346,567.065 C 249.717,572.832 248.978,579.849 248.135,585.086 C 243.528,585.19 235.261,585.513 227.491,585.408 C 218.064,585.304 211.141,585.086 204.645,585.086 C 201.075,585.086 198.457,585.304 195.734,585.408 L 195.734,582.993 L 198.983,581.317 C 200.758,580.379 201.601,577.974 201.601,575.133 L 201.601,525.436 C 201.601,521.458 201.397,518.741 200.649,517.585 C 200.029,516.534 198.779,516.117 196.255,516.004 L 191.227,515.701 L 191.227,512.538 C 196.677,512.756 201.601,512.859 206.738,512.859 C 211.558,512.859 216.487,512.755 221.937,512.538 L 221.937,515.701 L 216.913,516.004 C 214.39,516.117 213.13,516.534 212.5,517.585 C 211.762,518.74 211.558,521.458 211.558,525.436 L 211.558,580.161"
     clip-path="url(#SVGID_2_)" /><path
     style="fill:#000000;fill-opacity:1"
     id="path29"
     d="M 279.058,572.51 C 279.058,576.496 279.271,579.224 280,580.379 C 280.64,581.421 281.899,581.837 284.413,581.951 L 289.446,582.263 L 289.446,585.407 C 283.996,585.189 279.058,585.085 274.242,585.085 C 269.1,585.085 264.176,585.189 258.726,585.407 L 258.726,582.263 L 263.759,581.951 C 266.278,581.837 267.537,581.421 268.157,580.379 C 268.896,579.224 269.099,576.496 269.099,572.51 L 269.099,525.436 C 269.099,521.458 268.895,518.741 268.157,517.585 C 267.537,516.534 266.278,516.117 263.759,516.004 L 258.726,515.701 L 258.726,512.538 C 264.176,512.756 269.1,512.859 274.242,512.859 C 279.057,512.859 283.996,512.755 289.446,512.538 L 289.446,515.701 L 284.413,516.004 C 281.899,516.117 280.64,516.534 280,517.585 C 279.271,518.74 279.058,521.458 279.058,525.436 L 279.058,572.51"
     clip-path="url(#SVGID_2_)" /><path
     style="fill:#000000;fill-opacity:1"
     id="path31"
     d="M 307.055,525.436 C 307.055,521.458 306.851,518.741 306.103,517.585 C 305.473,516.534 304.214,516.212 301.7,516.004 L 297.94,515.701 L 297.94,512.538 C 303.698,512.661 309.673,512.859 313.03,512.859 C 319.109,512.859 324.985,512.661 333.257,512.538 C 343.011,512.339 352.016,515.909 352.016,527.026 C 352.016,536.552 343.105,542.736 334.516,544.109 L 334.516,544.308 C 345.203,544.62 355.586,549.034 355.586,561.296 C 355.586,571.571 347.83,586.022 324.876,585.406 C 320.989,585.302 317.215,585.084 313.456,585.084 C 309.564,585.084 305.795,585.302 302.021,585.406 L 302.021,582.991 L 304.744,581.95 C 306.638,581.211 307.055,577.972 307.055,575.132 L 307.055,525.436 M 317.013,543.059 C 318.907,543.163 321.307,543.258 324.451,543.258 C 333.565,543.258 341.634,539.488 341.634,529.11 C 341.634,519.053 334.622,516.743 325.81,516.743 C 322.988,516.743 319.953,516.847 317.013,517.586 L 317.013,543.059 L 317.013,543.059 z M 317.013,580.161 C 319.953,580.899 322.988,581.004 325.81,581.004 C 337.453,581.004 344.787,574.299 344.787,563.068 C 344.787,551.544 337.453,546.931 324.034,546.931 C 321.094,546.931 318.906,547.045 317.013,547.14 L 317.013,580.161 z "
     clip-path="url(#SVGID_2_)" /><path
     style="fill:#000000;fill-opacity:1"
     id="path33"
     d="M 385.36,572.51 C 385.36,576.496 385.564,579.224 386.298,580.379 C 386.928,581.421 388.183,581.837 390.702,581.951 L 395.735,582.263 L 395.735,585.407 C 390.285,585.189 385.361,585.085 380.532,585.085 C 375.399,585.085 370.475,585.189 365.016,585.407 L 365.016,582.263 L 370.049,581.951 C 372.568,581.837 373.828,581.421 374.453,580.379 C 375.187,579.224 375.4,576.496 375.4,572.51 L 375.4,525.436 C 375.4,521.458 375.187,518.741 374.453,517.585 C 373.828,516.534 372.568,516.212 370.049,516.004 L 365.75,515.701 L 365.75,512.538 C 371.309,512.661 377.388,512.859 383.577,512.859 C 389.751,512.859 395.84,512.661 401.924,512.538 C 418.686,512.234 423.089,520.729 423.089,528.276 C 423.089,539.697 412.819,546.515 402.649,548.504 L 426.446,579.526 C 428.018,581.629 430.324,582.046 432.847,582.263 L 432.847,585.407 C 430.12,585.303 427.705,585.085 425.29,585.085 C 422.875,585.085 420.579,585.303 418.164,585.407 C 416.805,583.409 415.224,581.629 413.87,579.744 L 394.58,553.854 C 392.904,551.543 390.915,549.554 389.13,547.348 L 389.751,546.098 C 392.582,546.306 395.84,546.202 398.984,545.681 C 406.314,544.412 412.606,538.749 412.606,530.993 C 412.606,519.677 404.22,516.533 396.044,516.533 C 391.333,516.533 388.288,517.063 385.362,517.783 L 385.362,572.51"
     clip-path="url(#SVGID_2_)" /><path
     style="fill:#000000;fill-opacity:1"
     id="path35"
     d="M 504.328,571.25 C 505.27,573.353 506.426,576.184 507.685,578.391 C 508.831,580.379 509.981,581.743 511.875,581.952 L 515.44,582.264 L 515.44,585.408 C 510.828,585.304 506.212,585.086 501.496,585.086 C 497.831,585.086 493.215,585.304 487.552,585.408 L 487.552,582.264 L 492.481,581.952 C 494.692,581.838 496.785,581.109 496.785,579.849 C 496.785,578.391 495.63,575.663 494.583,573.125 L 489.753,561.079 L 459.568,561.079 L 456.637,568.106 C 455.68,570.322 452.963,577.338 452.963,579.005 C 452.963,581.211 454.748,581.628 457.996,581.95 L 461.873,582.262 L 461.873,585.406 C 456.84,585.302 452.858,585.084 449.823,585.084 C 445.727,585.084 441.745,585.302 437.768,585.406 L 437.768,582.262 L 441.637,581.95 C 444.151,581.741 446.144,579.525 447.3,576.817 L 465.969,534.355 C 469.217,527.025 472.773,519.251 475.605,511.703 L 478.962,511.703 L 504.328,571.25 M 487.875,556.894 L 474.66,525.654 L 461.355,556.894 L 487.875,556.894 z "
     clip-path="url(#SVGID_2_)" /><path
     style="fill:#000000;fill-opacity:1"
     id="path37"
     d="M 543.845,572.51 C 543.845,576.496 544.049,579.224 544.787,580.379 C 545.417,581.421 546.676,581.837 549.186,581.951 L 554.219,582.263 L 554.219,585.407 C 548.769,585.189 543.845,585.085 539.025,585.085 C 533.888,585.085 528.949,585.189 523.509,585.407 L 523.509,582.263 L 528.542,581.951 C 531.065,581.837 532.315,581.421 532.936,580.379 C 533.674,579.224 533.888,576.496 533.888,572.51 L 533.888,525.436 C 533.888,521.458 533.675,518.741 532.936,517.585 C 532.315,516.534 531.065,516.212 528.542,516.004 L 524.238,515.701 L 524.238,512.538 C 529.792,512.661 535.876,512.859 542.06,512.859 C 548.248,512.859 554.328,512.661 560.417,512.538 C 577.183,512.234 581.586,520.729 581.586,528.276 C 581.586,539.697 571.307,546.515 561.146,548.504 L 584.938,579.526 C 586.51,581.629 588.821,582.046 591.34,582.263 L 591.34,585.407 C 588.617,585.303 586.193,585.085 583.788,585.085 C 581.373,585.085 579.062,585.303 576.648,585.407 C 575.294,583.409 573.712,581.629 572.354,579.744 L 553.069,553.854 C 551.388,551.543 549.404,549.554 547.619,547.348 L 548.249,546.098 C 551.08,546.306 554.328,546.202 557.482,545.681 C 564.812,544.412 571.104,538.749 571.104,530.993 C 571.104,519.677 562.714,516.533 554.542,516.533 C 549.821,516.533 546.786,517.063 543.846,517.783 L 543.846,572.51"
     clip-path="url(#SVGID_2_)" /><path
     style="fill:#000000;fill-opacity:1"
     id="path39"
     d="M 628.869,549.356 L 639.669,532.253 C 643.859,525.652 647.534,519.052 650.985,512.338 L 659.376,512.338 L 659.376,513.91 C 650.578,524.08 637.889,541.789 633.59,551.126 C 632.33,553.854 632.117,556.477 632.117,558.995 L 632.117,572.509 C 632.117,576.495 632.33,579.223 633.069,580.378 C 633.689,581.42 634.958,581.836 637.468,581.95 L 642.491,582.262 L 642.491,585.406 C 637.041,585.188 632.117,585.084 627.297,585.084 C 622.17,585.084 617.231,585.188 611.781,585.406 L 611.781,582.262 L 616.814,581.95 C 619.338,581.836 620.597,581.42 621.218,580.378 C 621.956,579.223 622.17,576.495 622.17,572.509 L 622.17,557.622 C 622.17,555.946 621.848,554.487 621.218,553.436 L 608.225,530.775 C 602.775,521.362 597.43,517.47 594.802,517.168 L 591.758,516.846 L 591.758,513.806 L 603.822,511.287 C 605.915,510.87 607.487,512.973 609.272,515.17 C 611.057,517.366 612.52,519.469 613.879,521.979 L 628.869,549.356"
     clip-path="url(#SVGID_2_)" /><path
     style="fill:#000000;fill-opacity:1"
     id="path41"
     d="M 0.312,675.454 C 0.312,661.401 5.762,649.356 17.088,643.484 C 20.336,641.818 23.484,640.548 27.675,640.548 C 37.529,640.548 41.619,647.679 41.619,656.685 C 41.619,665.397 38.158,675.88 32.708,682.689 C 28.508,687.917 20.857,692.225 14.053,692.225 C 3.665,692.226 0.312,684.583 0.312,675.454 M 25.795,684.792 C 31.136,678.599 33.65,666.117 33.65,657.954 C 33.65,651.553 31.765,644.526 23.891,644.526 C 21.699,644.526 19.18,644.943 17.504,646.326 C 11.112,651.439 8.28,667.169 8.28,674.82 C 8.28,681.544 10.269,688.238 18.134,688.238 C 21.283,688.238 23.892,686.988 25.795,684.792"
     clip-path="url(#SVGID_2_)" /><path
     style="fill:#000000;fill-opacity:1"
     id="path43"
     d="M 64.148,650.928 C 61.743,661.922 56.71,686.781 53.878,696.109 C 51.26,704.593 47.595,710.569 43.295,714.452 C 40.038,717.387 35.744,720 31.757,720 C 30.72,720 28.722,719.583 28.102,719.157 C 28.722,718.011 30.398,711.723 30.507,710.766 L 31.97,710.359 C 33.125,711.931 34.589,713.409 37.003,713.409 C 38.992,713.409 42.87,713.504 46.227,703.958 C 49.475,694.631 56.08,654.176 56.497,650.928 L 48.012,650.928 L 48.533,648.617 C 51.568,647.576 54.509,646.212 57.544,644.744 L 59.126,636.458 C 59.746,633.314 60.276,630.909 61.219,629.024 C 62.161,626.913 63.004,625.984 63.837,625.038 C 64.992,623.778 74.007,616.544 77.355,614.972 C 78.624,614.451 79.983,614.234 81.029,614.234 C 82.908,614.234 86.791,614.755 88.368,615.607 C 87.525,617.918 86.157,621.791 85.432,624.196 L 84.386,624.622 C 83.122,622.311 79.874,620.531 76.938,620.531 C 73.581,620.531 71.389,622.425 69.812,625.455 C 69.083,626.914 68.14,629.963 67.407,633.523 L 65.196,645.275 C 67.824,645.275 71.072,645.275 73.07,645.057 C 74.116,644.944 75.163,644.641 76.413,644.319 L 76.839,645.057 C 76.309,646.327 75.475,649.035 75.059,650.928 L 64.148,650.928"
     clip-path="url(#SVGID_2_)" /><path
     style="fill:#000000;fill-opacity:1"
     id="path45"
     d="M 167.708,687.519 C 161.628,691.174 151.264,693.182 144.862,693.182 C 119.711,693.182 102.717,678.807 102.717,655.01 C 102.717,642.954 107.442,633.428 115.51,626.819 C 123.374,620.303 134.061,616.743 145.803,616.743 C 155.557,616.743 164.993,619.263 170.017,621.052 C 168.966,625.986 168.029,631.535 168.029,636.99 L 164.78,636.99 L 164.78,629.443 C 164.78,626.498 160.58,624.717 155.77,622.947 C 152.413,621.792 147.905,621.157 144.028,621.157 C 124.312,621.157 113.938,635.522 113.938,653.345 C 113.938,674.093 127.669,687.521 148.422,687.521 C 155.974,687.521 164.885,684.794 169.705,681.224 L 170.647,682.275 L 167.708,687.519"
     clip-path="url(#SVGID_2_)" /><path
     style="fill:#000000;fill-opacity:1"
     id="path47"
     d="M 176.203,655.01 C 176.203,633.428 191.303,616.742 215.621,616.742 C 238.05,616.742 253.983,629.337 253.983,652.595 C 253.983,675.142 236.374,693.182 213.42,693.182 C 192.145,693.182 176.203,678.484 176.203,655.01 M 187.424,651.137 C 187.424,669.48 196.023,688.769 216.776,688.769 C 234.281,688.769 242.775,675.142 242.775,655.853 C 242.775,635.095 233.438,621.156 213.944,621.156 C 195.706,621.155 187.424,633.949 187.424,651.137"
     clip-path="url(#SVGID_2_)" /><path
     style="fill:#000000;fill-opacity:1"
     id="path49"
     d="M 267.192,631.43 C 267.192,627.444 266.979,624.716 266.25,623.579 C 265.611,622.528 264.361,622.206 261.847,621.988 L 257.231,621.685 L 257.231,618.532 C 261.847,618.636 266.038,618.844 269.812,618.844 C 271.701,618.844 273.581,618.636 275.475,618.532 L 325.579,680.379 L 325.887,680.379 L 325.887,631.43 C 325.887,627.444 325.674,624.716 324.945,623.579 C 324.315,622.528 323.065,622.206 320.547,621.988 L 315.93,621.685 L 315.93,618.532 C 320.13,618.636 324.315,618.844 328.098,618.844 C 332.288,618.844 336.062,618.636 340.664,618.532 L 340.664,621.685 L 336.062,621.988 C 333.547,622.206 332.288,622.528 331.658,623.579 C 330.929,624.716 330.716,627.443 330.716,631.43 L 330.716,689.29 C 330.716,690.549 330.929,691.913 331.028,693.182 L 321.591,691.496 L 272.211,630.171 L 272.007,630.171 L 272.007,678.484 C 272.007,682.481 272.211,685.199 272.959,686.363 C 273.579,687.405 274.839,687.717 277.353,687.917 L 281.979,688.238 L 281.979,691.383 C 277.353,691.288 273.579,691.079 269.394,691.079 C 265.611,691.079 261.43,691.288 257.23,691.383 L 257.23,688.238 L 261.846,687.917 C 264.36,687.718 265.61,687.405 266.249,686.363 C 266.978,685.199 267.191,682.481 267.191,678.484 L 267.191,631.43"
     clip-path="url(#SVGID_2_)" /><path
     style="fill:#000000;fill-opacity:1"
     id="path51"
     d="M 404.19,670.218 C 404.19,667.803 403.357,666.752 400.629,666.534 L 391.931,665.814 L 391.931,662.67 C 396.225,662.765 400.525,662.878 404.72,662.878 C 409.019,662.878 413.314,662.765 417.608,662.67 L 418.025,665.283 L 414.99,666.325 C 413.835,666.751 413.835,667.168 413.835,670.217 L 413.835,687.821 C 404.82,690.444 393.503,693.18 386.269,693.18 C 362.889,693.18 344.02,681.002 344.02,654.696 C 344.02,631.646 362.998,616.741 388.258,616.741 C 401.26,616.741 409.437,619.686 414.257,621.05 C 412.993,625.984 412.159,631.533 412.159,636.988 L 408.911,636.988 L 408.911,631.429 C 408.911,626.495 405.138,624.828 400.213,623.048 C 396.856,621.893 392.348,621.154 385.54,621.154 C 365.616,621.154 355.237,634.26 355.237,652.916 C 355.237,673.768 367.401,688.768 388.997,688.768 C 397.075,688.768 403.036,686.988 403.675,685.094 C 404.092,683.939 404.191,683.408 404.191,680.804 L 404.191,670.218"
     clip-path="url(#SVGID_2_)" /><path
     style="fill:#000000;fill-opacity:1"
     id="path53"
     d="M 443.5,678.484 C 443.5,682.481 443.713,685.199 444.442,686.363 C 445.072,687.405 446.322,687.822 448.845,687.917 L 453.878,688.238 L 453.878,691.383 C 448.428,691.174 443.5,691.079 438.67,691.079 C 433.532,691.079 428.618,691.174 423.168,691.383 L 423.168,688.238 L 428.191,687.917 C 430.701,687.822 431.969,687.405 432.599,686.363 C 433.328,685.199 433.532,682.481 433.532,678.484 L 433.532,631.43 C 433.532,627.444 433.328,624.716 432.599,623.579 C 431.969,622.528 430.701,622.206 428.191,621.988 L 423.892,621.685 L 423.892,618.532 C 429.451,618.636 435.531,618.844 441.714,618.844 C 447.902,618.844 453.982,618.636 460.062,618.532 C 476.837,618.22 481.241,626.704 481.241,634.261 C 481.241,645.681 470.962,652.499 460.801,654.497 L 484.589,685.511 C 486.156,687.613 488.467,688.039 490.985,688.238 L 490.985,691.383 C 488.263,691.288 485.848,691.079 483.433,691.079 C 481.028,691.079 478.722,691.288 476.307,691.383 C 474.948,689.394 473.376,687.613 472.008,685.72 L 452.723,659.829 C 451.047,657.538 449.058,655.53 447.273,653.343 L 447.903,652.083 C 450.734,652.292 453.983,652.178 457.126,651.657 C 464.465,650.407 470.758,644.744 470.758,636.988 C 470.758,625.663 462.363,622.528 454.196,622.528 C 449.475,622.528 446.431,623.049 443.5,623.778 L 443.5,678.484"
     clip-path="url(#SVGID_2_)" /><path
     style="fill:#000000;fill-opacity:1"
     id="path55"
     d="M 502.718,631.43 C 502.718,627.444 502.514,624.716 501.78,623.579 C 501.15,622.528 499.886,622.102 497.376,621.988 L 492.334,621.685 L 492.334,618.532 C 498.106,618.636 504.077,618.844 510.062,618.844 C 519.176,618.844 528.826,618.532 534.796,618.532 C 539.522,618.532 544.233,618.636 548.314,618.844 C 547.168,623.465 546.638,629.441 546.638,634.782 L 542.973,634.782 L 542.973,627.973 C 542.973,626.609 542.874,625.453 542.031,625.132 C 536.477,623.048 528.196,622.944 521.482,622.944 C 518.65,622.944 515.615,623.048 512.68,623.777 L 512.68,651.76 C 516.032,651.968 519.815,652.081 524.839,652.081 C 531.24,652.081 534.796,651.655 535.952,650.926 C 536.477,650.5 536.69,649.563 536.785,648.199 L 537.32,642.744 L 540.459,642.744 C 540.355,647.044 540.142,651.02 540.142,654.913 C 540.142,658.786 540.355,662.764 540.459,666.532 L 537.32,666.532 L 536.785,660.357 C 536.69,658.994 536.477,658.046 535.952,657.744 C 534.796,656.901 531.241,656.475 524.839,656.475 C 519.815,656.475 515.928,656.475 512.68,656.796 L 512.68,686.152 C 515.616,686.872 518.651,686.985 521.482,686.985 C 530.085,686.985 540.772,686.664 542.661,685.622 C 544.233,684.789 545.592,680.168 546.335,673.88 L 550,673.88 C 548.954,678.918 548.314,685.414 548.314,691.076 C 543.707,691.171 535.426,691.493 527.67,691.38 C 519.592,691.285 511.32,691.076 504.815,691.076 C 500.838,691.076 497.377,691.285 493.603,691.38 L 493.603,688.235 L 497.376,687.914 C 499.886,687.715 501.15,687.402 501.78,686.36 C 502.514,685.196 502.718,682.478 502.718,678.481 L 502.718,631.43"
     clip-path="url(#SVGID_2_)" /><path
     style="fill:#000000;fill-opacity:1"
     id="path57"
     d="M 596.752,635.938 L 596.123,629.962 C 595.801,627.131 595.384,626.079 591.516,623.674 C 588.576,621.894 584.177,621.155 580.081,621.155 C 572.742,621.155 564.57,626.079 564.57,636.458 C 564.57,643.589 568.765,647.992 581.866,649.451 C 596.643,651.022 605.976,654.697 605.976,666.657 C 605.976,684.583 589.934,693.181 574.314,693.181 C 566.984,693.181 559.854,690.861 556.393,689.185 C 557.226,683.731 557.226,678.068 557.122,673.153 L 560.474,673.153 L 561.322,680.171 C 561.833,684.583 570.134,688.561 578.405,688.561 C 587.842,688.561 597.169,682.794 597.169,672.415 C 597.169,662.443 589.413,659.621 578.717,658.371 C 562.268,656.477 555.762,651.345 555.762,640.445 C 555.762,624.195 570.018,616.742 582.594,616.742 C 590.98,616.742 597.272,619.479 601.572,621.155 C 600.526,626.496 600.094,631.013 600.094,635.937 L 596.752,635.937"
     clip-path="url(#SVGID_2_)" /><path
     style="fill:#000000;fill-opacity:1"
     id="path59"
     d="M 650.938,635.938 L 650.318,629.962 C 650.001,627.131 649.57,626.079 645.701,623.674 C 642.765,621.894 638.362,621.155 634.271,621.155 C 626.927,621.155 618.755,626.079 618.755,636.458 C 618.755,643.589 622.955,647.992 636.051,649.451 C 650.843,651.022 660.17,654.697 660.17,666.657 C 660.17,684.583 644.129,693.181 628.508,693.181 C 621.169,693.181 614.043,690.861 610.577,689.185 C 611.425,683.731 611.425,678.068 611.316,673.153 L 614.673,673.153 L 615.506,680.171 C 616.036,684.583 624.308,688.561 632.589,688.561 C 642.026,688.561 651.362,682.794 651.362,672.415 C 651.362,662.443 643.597,659.621 632.91,658.371 C 616.452,656.477 609.955,651.345 609.955,640.445 C 609.955,624.195 624.212,616.742 636.788,616.742 C 645.178,616.742 651.461,619.479 655.765,621.155 C 654.709,626.496 654.292,631.013 654.292,635.937 L 650.938,635.937"
     clip-path="url(#SVGID_2_)" /></g>
</svg>