<?xml version="1.0" encoding="UTF-8" standalone="no"?>
<svg
   xmlns:dc="http://purl.org/dc/elements/1.1/"
   xmlns:cc="http://web.resource.org/cc/"
   xmlns:rdf="http://www.w3.org/1999/02/22-rdf-syntax-ns#"
   xmlns:svg="http://www.w3.org/2000/svg"
   xmlns="http://www.w3.org/2000/svg"
   xmlns:sodipodi="http://sodipodi.sourceforge.net/DTD/sodipodi-0.dtd"
   xmlns:inkscape="http://www.inkscape.org/namespaces/inkscape"
   version="1.1"
   id="Layer_1"
   x="0px"
   y="0px"
   width="678.906px"
   height="720px"
   viewBox="0 0 678.906 720"
   enable-background="new 0 0 678.906 720"
   xml:space="preserve"
   sodipodi:version="0.32"
   inkscape:version="0.45.1"
   sodipodi:docname="local.svg"
   sodipodi:docbase="/Users/lindberg/Projects/Wiki/seals"
   inkscape:output_extension="org.inkscape.output.svg.inkscape"
   inkscape:export-filename="/Users/lindberg/Projects/Wiki/seals/local.png"
   inkscape:export-xdpi="90"
   inkscape:export-ydpi="90"><metadata
   id="metadata30"><rdf:RDF><cc:Work
       rdf:about=""><dc:format>image/svg+xml</dc:format><dc:type
         rdf:resource="http://purl.org/dc/dcmitype/StillImage" /></cc:Work></rdf:RDF></metadata><defs
   id="defs28" /><sodipodi:namedview
   inkscape:window-height="581"
   inkscape:window-width="697"
   inkscape:pageshadow="2"
   inkscape:pageopacity="0.0"
   guidetolerance="10.0"
   gridtolerance="10.0"
   objecttolerance="10.0"
   borderopacity="1.0"
   bordercolor="#666666"
   pagecolor="#ffffff"
   id="base"
   inkscape:zoom="0.525"
   inkscape:cx="339.453"
   inkscape:cy="360"
   inkscape:window-x="58"
   inkscape:window-y="22"
   inkscape:current-layer="Layer_1" />
<g
   id="g3"
   style="fill:#000000;fill-opacity:1">
	<g
   id="g5"
   style="fill:#000000;fill-opacity:1">
		<g
   id="g7"
   style="fill:#000000;fill-opacity:1">
			<path
   fill="#B3B3B3"
   d="M167.066,421.139c4.76-61.804,20.894-115.045,56.994-161.638c0,0,37.623-47.259,88.306-74.181     c78.816-41.855,154.791-39.048,154.791-39.048s35.128-3.82,107.285,7.566c0,0,31.979,5.74,61.724,14.224     c19.936,5.704,29.428-3.804,29.428-3.804c7.61-7.622,11.634-24.727,11.634-24.727l1.678-0.002l-0.026,142.585     c0,0-1.353-36.721-37.017-67.476c-61.725-53.201-174.722-46.503-174.722-46.503c-93.662,5.611-146.501,45.675-177.564,82.784     c-24.697,29.472-55.083,77.972-55.098,168.287c0,76.035,21.722,165.155,94.926,222.388     c60.769,47.516,123.247,52.915,132.935,53.188c34.184,0.926,85.651,6.974,154.772-29.538     c52.235-27.594,61.731-77.012,61.731-77.012c-0.016-0.008-0.016,68.433-0.011,93.135c0,0-93.066,43.781-216.507,38.128     c0,0-137.196,4.291-220.275-89.268C158.498,536.159,167.066,421.139,167.066,421.139"
   id="path9"
   style="fill:#000000;fill-opacity:1" />
		</g>
	</g>
</g>
<g
   id="g11"
   style="fill:#000000;fill-opacity:1">
	<g
   id="g13"
   style="fill:#000000;fill-opacity:1">
		<g
   id="g15"
   style="fill:#000000;fill-opacity:1">
			<path
   fill="#B3B3B3"
   d="M6.582,556.179l404.502-0.164c0,0,0.469-6.192,8.074-27.097c6.771-18.666,26.591-56.1,26.591-56.1     l-1.426,0.008l-24.694,32.8c-15.671,21.396-33.027,26.662-50.317,27.594c-18.06,0.952-203.211,0.082-203.211,0.082     s-20.895,0.008-32.29-4.741c-12.936-5.386-15.192-19.953-15.192-19.953l0.074-451.535c0,0,1.214-21.864,21.843-36.141     C166.64,2.862,178.507,3.338,178.507,3.338L178.511,0c0,0-37.043,8.586-89.266,9.562C27.521,10.7,0,0.092,0,0.092l0.009,3.786     c-0.022-0.005,21.827,3.793,38.913,16.145c18.535,13.396,18.983,38.03,18.983,38.03s-0.046,430.514-0.047,449.627     c0,0-0.237,17.776-15.196,30.419C27.471,550.947,6.58,552.377,6.58,552.377L6.582,556.179l404.502-0.164"
   id="path17"
   style="fill:#000000;fill-opacity:1" />
		</g>
	</g>
</g>
<g
   id="g19"
   style="fill:#000000;fill-opacity:1">
	<g
   id="g21"
   style="fill:#000000;fill-opacity:1">
		<g
   id="g23"
   style="fill:#000000;fill-opacity:1">
			<path
   fill="#B3B3B3"
   d="M640.405,487.471l-0.014-25.657l-10.433-0.021l-0.003,5.72l-3.32,0.005     c-9.499-9.505-13.29-16.168-31.334-28.504c-16.767-11.478-45.577-20.898-45.577-20.898c-0.474,0.474-0.24-10.46-0.24-10.46     s-6.166-0.227-9.023-1.653c-3.492-1.753-3.33-4.706-1.415-6.431c2.143-1.892,3.965-1.362,3.965-1.362l0.071-6.692l-29.684,0.002     l0.014-40.164l3.563-0.016c0,0-2.368-7.124-4.265-12.836l-3.333-0.002c-5.698-20.433-15.174-30.408-32.512-39.173l-0.003-3.108     c0,0-6.412,0.955-10.443-2.828c0,0-2.135-2.145-0.492-5.243c1.063-1.941,3.579-2.852,3.579-2.852s-2.854-1.899-3.804-2.132     c-0.059-0.014,0.008,0.243,0.957-1.418c0,0,3.088-5.228,3.799-12.603c0,0-0.711-0.466-0.952-0.704     c-1.354-1.352,0.952-1.42,0.952-1.42c-4.505-5.238-6.886-11.182-6.886-11.182l-1.661,0.013c0,0-2.349,5.695-6.875,10.923     c0,0,2.283,0.076,0.938,1.439c-0.243,0.227-0.949,0.703-0.949,0.703c0.69,7.362,3.743,12.6,3.743,12.6     c1.186,0.966,0.762,1.892,0.698,1.91c-0.939,0.225-3.971,1.873-3.971,1.873s2.812,0.725,3.802,2.867     c1.661,3.562-0.95,5.696-0.95,5.696c-3.563,3.562-9.732,2.629-9.732,2.629l0.003,2.85c-17.57,9.264-26.354,18.536-32.763,39.455     l-3.299-0.023c-1.929,5.688-4.325,12.806-4.325,12.806l3.35,0.053l-0.014,39.922l-28.963,0.013l0.004,6.19     c0,0,2.847-0.003,4.556,1.283c2.299,1.756,2.539,4.926-0.969,6.655c-2.867,1.407-10.932,2.336-10.932,2.336     s0.44,10.46-0.034,9.983c0,0-23.29,7.299-38.196,18.259c-14.257,10.449-27.319,20.928-36.325,30.903l-3.503,0.039l0.025-5.692     l-10.444-0.04l-0.09,26.139l-30.387,0.008c0,0-6.172-13.324-7.592-40.87c-1.851-36.006-1.233-85.16,15.953-127.985     c24.276-60.565,67.768-95.982,108.475-116.37c25.687-12.859,80.054-25.821,126.295-21.93     c56.013,4.732,90.196,15.19,120.572,34.184c21.682,13.55,50.32,49.415,56.026,111.197c0.709,7.786-0.023,161.601-0.023,161.601     L640.405,487.471"
   id="path25"
   style="fill:#000000;fill-opacity:1" />
		</g>
	</g>
</g>
</svg>