<?xml version="1.0" encoding="UTF-8" standalone="no"?>
<!-- Generator: Adobe Illustrator 13.0.1, SVG Export Plug-In . SVG Version: 6.00 Build 14948)  -->
<svg
   xmlns:dc="http://purl.org/dc/elements/1.1/"
   xmlns:cc="http://web.resource.org/cc/"
   xmlns:rdf="http://www.w3.org/1999/02/22-rdf-syntax-ns#"
   xmlns:svg="http://www.w3.org/2000/svg"
   xmlns="http://www.w3.org/2000/svg"
   xmlns:sodipodi="http://sodipodi.sourceforge.net/DTD/sodipodi-0.dtd"
   xmlns:inkscape="http://www.inkscape.org/namespaces/inkscape"
   version="1.0"
   id="Layer_1"
   x="0px"
   y="0px"
   width="720"
   height="720"
   viewBox="0 0 69.796 70.548"
   enable-background="new 0 0 69.796 70.548"
   xml:space="preserve"
   sodipodi:version="0.32"
   inkscape:version="0.45.1"
   sodipodi:docname="LOCNewSeal.svg"
   sodipodi:docbase="/Users/lindberg/Projects/Wiki/seals"
   inkscape:output_extension="org.inkscape.output.svg.inkscape"
   inkscape:export-filename="/Users/lindberg/Projects/Wiki/seals/LOCNewSeal.png"
   inkscape:export-xdpi="90"
   inkscape:export-ydpi="90"><metadata
   id="metadata366"><rdf:RDF><cc:Work
       rdf:about=""><dc:format>image/svg+xml</dc:format><dc:type
         rdf:resource="http://purl.org/dc/dcmitype/StillImage" /></cc:Work></rdf:RDF></metadata><defs
   id="defs364">
	

		
	
			
		
				
			
					
				
	

		
	
			
		
				
			
					
				
	

		
	
			
		
				
			
					
				
	

	

		
	
		
	
			
		
			
		
				
			
				
			
					
				
					
				
	

	

	

	

	

	

	

	

	

	

	

	

	

	

	

	

	

	

	

	

	

	

	

	

	

		
	
		
	
		
	
		
	
		
	
		
	
		
	
		
	
		
	
		
	
		
	
		
	
		
	
		
	
		
	
		
	
		
	
		
	
		
	
		
	
		
	
		
	
		
	
		
	
		
	
			
		
			
		
			
		
			
		
			
		
			
		
			
		
			
		
			
		
			
		
			
		
			
		
			
		
			
		
			
		
			
		
			
		
			
		
			
		
			
		
			
		
			
		
			
		
			
		
			
		
				
			
				
			
				
			
				
			
				
			
				
			
				
			
				
			
				
			
				
			
				
			
				
			
				
			
				
			
				
			
				
			
				
			
				
			
				
			
				
			
				
			
				
			
				
			
				
			
				
			
					
				
					
				
					
				
					
				
					
				
					
				
					
				
					
				
					
				
					
				
					
				
					
				
					
				
					
				
					
				
					
				
					
				
					
				
					
				
					
				
					
				
					
				
					
				
					
				
					
				</defs><sodipodi:namedview
   inkscape:window-height="581"
   inkscape:window-width="697"
   inkscape:pageshadow="2"
   inkscape:pageopacity="0.0"
   guidetolerance="10.0"
   gridtolerance="10.0"
   objecttolerance="10.0"
   borderopacity="1.0"
   bordercolor="#666666"
   pagecolor="#ffffff"
   id="base"
   width="720px"
   height="720px"
   inkscape:showpageshadow="false"
   inkscape:zoom="1.3395136"
   inkscape:cx="411.75121"
   inkscape:cy="243.25994"
   inkscape:window-x="193"
   inkscape:window-y="22"
   inkscape:current-layer="Layer_1" />

<path
   style="fill:#000000;fill-opacity:1"
   id="path25"
   d="M 17.973,58.696 C 17.648,58.492 17.355,58.244 17.026,58.075 C 16.914,58.221 17.163,58.301 17.048,58.459 C 16.869,58.696 16.756,58.978 16.519,59.203 C 16.034,59.913 15.503,60.634 14.985,61.379 L 14.635,61.391 L 14.635,61.48 C 14.917,61.672 15.198,61.921 15.482,62.066 C 15.697,62.021 15.426,61.886 15.515,61.752 C 15.842,61.379 16.034,60.904 16.406,60.612 L 17.894,61.606 C 17.792,62.033 17.376,62.395 17.151,62.789 C 17.026,62.868 16.769,62.844 16.79,63.001 C 17.117,63.162 17.4,63.487 17.715,63.611 C 17.942,63.532 17.659,63.352 17.715,63.194 L 19.62,60.466 C 19.689,60.273 19.901,60.184 20.07,60.228 L 20.07,60.184 C 19.79,59.947 19.427,59.733 19.101,59.53 C 18.998,59.653 19.213,59.743 19.204,59.89 L 18.154,61.391 L 18.052,61.423 C 17.49,61.142 17.026,60.737 16.519,60.352 L 17.635,58.775 L 17.973,58.775 L 17.973,58.696 z " />
<path
   style="fill:#000000;fill-opacity:1"
   id="path37"
   d="M 11.868,15.158 C 11.576,15.554 11.237,15.858 10.909,16.207 L 10.853,16.207 L 10.02,14.595 L 10.051,14.549 C 10.671,14.652 11.257,14.864 11.867,15.023 C 11.902,15.057 11.935,15.134 11.868,15.158 M 14.207,14.94 C 14.128,14.795 13.992,14.976 13.868,14.94 C 12.46,14.58 11.096,14.164 9.684,13.814 C 9.494,14.107 9.145,14.266 9.042,14.613 C 9.257,14.695 9.458,14.298 9.684,14.512 C 10.248,15.617 10.824,16.723 11.388,17.805 L 11.388,18.233 L 11.454,18.233 C 11.612,18.031 11.872,17.84 11.895,17.591 C 11.747,17.613 11.624,17.715 11.51,17.569 C 11.297,17.207 11.094,16.847 10.97,16.464 C 11.387,16.034 11.758,15.492 12.221,15.133 C 12.626,15.211 13,15.337 13.362,15.459 C 13.45,15.516 13.326,15.742 13.485,15.709 C 13.722,15.459 14.005,15.223 14.207,14.94" />
<path
   style="fill:#000000;fill-opacity:1"
   id="path49"
   d="M 18.469,8.8 C 18.481,9.128 18.28,9.409 17.996,9.6 C 17.533,9.094 17.184,8.496 16.812,7.957 C 16.812,7.831 17.004,7.831 17.107,7.775 C 17.421,7.763 17.703,7.842 17.973,7.957 C 18.223,8.203 18.458,8.474 18.469,8.8 M 21.038,9.506 C 20.835,9.402 20.801,9.685 20.677,9.764 C 20.159,9.922 19.707,9.582 19.256,9.426 C 19.055,9.347 18.805,9.358 18.603,9.27 C 18.817,8.918 18.884,8.377 18.705,7.981 C 18.57,7.689 18.254,7.543 17.972,7.465 C 17.172,7.351 16.472,7.655 15.885,8.185 C 15.875,8.422 16.122,8.196 16.238,8.322 L 18.22,11.128 C 18.323,11.253 18.254,11.354 18.22,11.477 L 18.254,11.477 C 18.535,11.354 18.863,11.139 19.1,10.913 C 19.008,10.847 18.864,10.891 18.785,10.801 C 18.548,10.441 18.255,10.125 18.119,9.729 C 18.864,9.562 19.383,10.373 20.195,10.149 C 20.519,10.044 20.96,9.876 21.038,9.506" />
<path
   style="fill:#000000;fill-opacity:1"
   id="path61"
   d="M 6.655,23.188 L 4.725,22.433 C 4.885,22.083 5.313,21.935 5.652,21.846 C 6.08,21.892 6.53,22.027 6.733,22.433 C 6.813,22.671 6.813,22.996 6.655,23.188 M 9.283,21.438 L 9.158,21.438 C 9.08,22.565 7.771,22.034 7.163,22.611 L 7.083,22.565 C 7.062,22.284 6.949,22.047 6.824,21.81 C 6.643,21.448 6.203,21.247 5.754,21.326 C 4.851,21.574 4.389,22.375 4.163,23.208 L 4.208,23.253 C 4.321,23.265 4.389,23.175 4.467,23.129 C 5.639,23.49 6.767,23.942 7.874,24.426 L 7.976,24.651 C 8.267,24.45 8.256,24.009 8.437,23.705 C 8.314,23.58 8.235,23.817 8.099,23.773 C 7.729,23.571 7.287,23.501 6.94,23.253 C 7.378,22.736 8.177,23.051 8.674,22.645 C 9.08,22.375 9.36,21.923 9.283,21.438" />
<path
   style="fill:#000000;fill-opacity:1"
   id="path73"
   d="M 63.509,50.981 C 63.287,51.331 62.834,51.489 62.406,51.444 C 62.077,51.331 61.706,51.184 61.592,50.801 C 61.514,50.529 61.592,50.293 61.74,50.057 C 62.327,50.327 62.947,50.652 63.509,50.981 M 64.195,50.359 C 64.115,50.045 63.956,50.484 63.789,50.349 C 62.75,49.764 61.713,49.323 60.711,48.68 L 60.655,48.476 C 60.382,48.669 60.271,49.063 60.09,49.344 C 60.146,49.548 60.272,49.3 60.405,49.344 C 60.777,49.527 61.15,49.74 61.498,49.965 C 61.014,50.394 60.215,50.066 59.697,50.405 C 59.336,50.608 58.997,51.013 58.961,51.455 C 58.972,51.522 59.04,51.532 59.097,51.555 C 59.288,50.473 60.552,51.069 61.251,50.608 C 61.318,51.069 61.387,51.555 61.815,51.86 C 62.075,52.052 62.445,51.995 62.76,51.927 C 63.45,51.713 63.956,51.013 64.195,50.359" />
<path
   style="fill:#000000;fill-opacity:1"
   id="path85"
   d="M 36.791,3.845 L 35.8,4.578 L 36.185,5.773 L 35.19,5.028 L 34.199,5.773 L 34.581,4.578 L 33.591,3.845 L 34.82,3.845 L 35.19,2.65 L 35.573,3.845 L 36.791,3.845 z M 37.515,3.603 L 35.721,3.603 L 35.159,1.8 L 34.606,3.603 L 32.802,3.603 L 34.266,4.719 L 33.704,6.523 L 35.159,5.408 L 36.623,6.523 L 36.06,4.719 L 37.515,3.603 z " />
<path
   style="fill:#000000;fill-opacity:1"
   id="path97"
   d="M 40.636,65.743 L 39.746,66.589 L 40.263,67.728 L 39.193,67.12 L 38.301,67.965 L 38.527,66.749 L 37.457,66.128 L 38.674,65.981 L 38.901,64.753 L 39.418,65.89 L 40.636,65.743 z M 41.348,65.357 L 39.553,65.581 L 38.786,63.856 L 38.449,65.717 L 36.669,65.932 L 38.246,66.866 L 37.906,68.717 L 39.227,67.431 L 40.805,68.367 L 40.038,66.641 L 41.348,65.357 z " />
<path
   style="fill:#000000;fill-opacity:1"
   id="path109"
   d="M 56.781,12.729 L 57.671,13.575 L 56.442,13.428 L 55.9,14.555 L 55.688,13.338 L 54.458,13.202 L 55.553,12.594 L 55.338,11.376 L 56.228,12.211 L 57.324,11.602 L 56.781,12.729 z M 57.056,12.706 L 57.88,11.014 L 56.245,11.95 L 54.925,10.721 L 55.231,12.525 L 53.595,13.461 L 55.421,13.641 L 55.714,15.457 L 56.55,13.754 L 58.363,13.946 L 57.056,12.706 z " />
<path
   style="fill:#000000;fill-opacity:1"
   id="path121"
   d="M 8.663,48.425 L 8.45,49.655 L 9.531,50.219 L 8.314,50.409 L 8.1,51.639 L 7.556,50.532 L 6.34,50.724 L 7.22,49.845 L 6.69,48.73 L 7.772,49.305 L 8.663,48.425 z M 8.723,49.502 L 9.064,47.642 L 7.733,48.984 L 6.144,48.149 L 6.909,49.818 L 5.59,51.149 L 7.394,50.843 L 8.173,52.502 L 8.511,50.642 L 10.315,50.338 L 8.723,49.502 z " />
<path
   style="fill:#000000;fill-opacity:1"
   id="path133"
   d="M 32.892,66.176 L 31.81,66.763 L 32.025,68.002 L 31.144,67.136 L 30.062,67.732 L 30.605,66.592 L 29.724,65.738 L 30.931,65.906 L 31.47,64.778 L 31.687,66.007 L 32.892,66.176 z M 33.679,65.992 L 31.899,65.754 L 31.582,63.894 L 30.793,65.597 L 29.012,65.349 L 30.297,66.656 L 29.496,68.359 L 31.098,67.457 L 32.383,68.754 L 32.078,66.893 L 33.679,65.992 z " />
<path
   style="fill:#000000;fill-opacity:1"
   id="path145"
   d="M 56.261,55.213 C 56.228,55.045 56.658,54.831 56.297,54.762 L 54.649,56.397 C 54.685,56.566 54.572,56.815 54.741,56.904 L 54.843,56.827 C 54.843,56.319 55.339,56.083 55.666,55.7 L 55.746,55.7 L 57.062,56.928 L 57.097,57.051 C 56.951,57.165 56.781,57.537 56.543,57.288 C 56.488,57.548 56.792,57.695 56.974,57.863 C 56.986,57.65 57.03,57.345 57.3,57.244 L 58.316,58.18 C 58.146,58.539 57.763,58.913 57.335,58.867 C 57.38,59.059 57.617,59.024 57.764,59.069 C 58.27,58.676 58.711,58.19 59.149,57.739 L 59.23,57.548 C 59.049,57.345 58.878,57.751 58.675,57.581 L 57.355,56.319 C 56.974,55.934 56.578,55.654 56.261,55.213" />
<path
   style="fill:#000000;fill-opacity:1"
   id="path157"
   d="M 67.662,31.539 L 67.649,30.615 L 67.571,30.534 C 67.526,30.895 67.153,31.166 66.882,31.414 C 65.879,31.414 64.954,31.539 63.918,31.528 C 63.816,31.494 63.747,31.371 63.705,31.268 C 63.658,31.246 63.615,31.268 63.579,31.29 C 63.59,31.551 63.59,31.832 63.636,32.091 C 63.863,32.171 63.782,31.865 63.974,31.809 C 64.9,31.809 65.631,31.662 66.511,31.729 L 66.522,31.752 L 63.828,34.514 C 63.794,34.57 63.748,34.752 63.874,34.763 L 67.492,34.672 C 67.719,34.682 67.685,34.954 67.819,35.011 C 68.021,34.786 67.922,34.436 67.898,34.11 L 67.819,34.064 C 67.695,34.12 67.729,34.267 67.65,34.357 C 66.758,34.436 65.846,34.514 64.943,34.514 L 64.842,34.436 L 67.662,31.539 z " />
<path
   style="fill:#000000;fill-opacity:1"
   id="path169"
   d="M 12.579,53.666 C 12.377,53.679 12.151,53.654 12.026,53.792 C 12.093,53.858 12.172,53.914 12.297,53.882 C 12.713,54.039 12.985,54.469 13.257,54.838 C 12.748,55.347 12.231,55.73 11.69,56.136 C 11.488,56.045 11.361,55.807 11.463,55.595 C 11.248,55.606 11.105,55.876 10.945,56.034 C 11.022,56.124 11.104,56.012 11.203,56.034 C 11.293,56.124 11.508,56.214 11.452,56.395 L 10.54,57.139 C 10.29,57.49 10.131,56.903 9.963,56.823 C 9.671,56.611 10.076,56.339 9.817,56.124 C 9.694,56.284 9.636,56.475 9.569,56.644 C 9.974,57.139 10.37,57.736 10.9,58.132 C 11.001,58.029 10.867,57.895 10.922,57.749 C 11.7,56.969 12.579,56.395 13.426,55.639 C 13.56,55.493 13.787,55.439 13.988,55.472 C 14,55.347 13.878,55.278 13.842,55.19 C 13.458,54.681 12.951,54.196 12.579,53.666" />
<path
   style="fill:#000000;fill-opacity:1"
   id="path181"
   d="M 62.8,17.475 C 62.677,17.193 62.417,16.935 62.137,16.833 C 61.456,16.596 60.748,16.755 60.161,17.035 C 59.472,17.397 59.124,18.106 59.033,18.829 C 59,19.335 59.327,19.731 59.699,20.013 C 59.957,20.115 60.285,20.261 60.543,20.103 C 60.534,19.741 60.138,20.025 59.97,19.854 C 59.732,19.753 59.532,19.54 59.519,19.291 C 59.565,18.22 60.567,17.577 61.424,17.193 C 61.808,17.093 62.237,17.137 62.507,17.441 C 62.653,17.679 62.709,17.938 62.677,18.242 C 62.709,18.411 62.439,18.648 62.677,18.704 L 63.308,18.289 L 63.308,18.242 C 63.241,18.141 63.106,18.185 63.026,18.185 C 62.8,18.051 62.958,17.679 62.8,17.475" />
<path
   style="fill:#000000;fill-opacity:1"
   id="path193"
   d="M 6.958,42.701 C 6.9,42.407 6.755,42.081 6.371,42.149 L 6.36,42.25 C 6.844,42.486 6.856,43.097 6.936,43.547 C 5.762,43.941 4.579,44.281 3.382,44.641 C 3.236,44.641 3.292,44.392 3.111,44.505 L 3.45,45.532 C 3.619,45.632 3.586,45.383 3.653,45.284 L 6.887,44.281 C 7.011,44.233 7.216,44.2 7.26,44.381 C 7.293,44.437 7.372,44.427 7.407,44.392 C 7.319,43.817 7.081,43.276 6.958,42.701" />
<path
   style="fill:#000000;fill-opacity:1"
   id="path205"
   d="M 6.004,31.219 C 4.764,31.141 3.525,30.949 2.362,30.814 C 2.384,30.576 2.542,30.374 2.745,30.283 C 3.151,30.161 3.648,30.218 3.85,30.645 C 3.871,30.691 3.896,30.77 3.963,30.78 C 4.119,30.533 4.402,30.328 4.694,30.283 C 5.247,30.205 5.719,30.544 6.013,31.007 C 5.982,31.085 6.128,31.153 6.004,31.219 M 6.298,30.605 C 6.232,30.207 5.867,29.925 5.532,29.813 C 5.013,29.634 4.438,29.847 4.076,30.253 L 4.031,30.253 C 3.975,30.096 3.874,29.961 3.772,29.813 C 3.556,29.552 3.196,29.677 2.915,29.688 C 2.081,30.038 2.183,31.042 2.025,31.752 C 2.114,32.114 2.194,31.617 2.384,31.629 C 3.556,31.707 4.572,31.9 5.744,31.933 C 5.97,31.888 6.049,32.147 6.127,32.271 L 6.151,32.226 C 6.231,31.684 6.411,31.143 6.298,30.605" />
<path
   style="fill:#000000;fill-opacity:1"
   id="path217"
   d="M 6.07,36.862 C 5.843,36.807 6.035,37.077 5.843,37.089 C 4.625,37.235 3.407,37.393 2.166,37.404 C 2.1,37.326 2.054,37.202 1.941,37.223 C 1.872,37.563 1.941,37.991 2.019,38.352 C 2.144,38.329 2.165,38.137 2.278,38.093 C 3.462,37.991 4.635,37.924 5.865,37.811 C 6.08,37.845 5.954,38.171 6.169,38.125 C 6.146,37.709 6.193,37.246 6.07,36.862" />
<path
   style="fill:#000000;fill-opacity:1"
   id="path229"
   d="M 52.229,6.961 C 51.503,6.624 50.839,6.148 50.094,5.833 C 49.814,6.06 50.365,6.104 50.243,6.364 C 49.666,7.369 49.271,8.45 48.663,9.443 C 48.55,9.522 48.313,9.34 48.302,9.532 C 48.663,9.769 49.034,9.973 49.429,10.164 L 49.522,10.13 C 49.566,9.905 49.285,9.825 49.329,9.611 C 49.589,9.116 49.814,8.62 50.129,8.135 L 50.569,8.292 C 50.771,8.338 50.693,8.519 50.693,8.653 C 50.681,8.732 50.758,8.754 50.839,8.754 C 50.928,8.483 51.21,8.259 51.177,7.966 C 51.054,7.909 50.973,8.045 50.918,8.124 C 50.681,8.215 50.411,8.011 50.254,7.842 C 50.457,7.401 50.648,6.952 50.941,6.546 L 51.819,6.984 C 51.944,7.041 52.068,7.188 52.057,7.357 C 52.091,7.435 52.068,7.595 52.215,7.558 C 52.293,7.369 52.328,7.153 52.229,6.961" />
<path
   style="fill:#000000;fill-opacity:1"
   id="path241"
   d="M 66.699,41.774 C 66.293,41.178 65.684,40.805 64.962,40.794 C 64.117,40.76 63.316,41.301 62.979,42.091 C 62.867,42.53 62.867,43.094 63.161,43.5 C 63.216,43.49 63.271,43.511 63.316,43.465 C 63.621,43.669 64.242,43.431 64.242,43.973 C 64.277,43.996 64.344,43.996 64.388,43.973 C 64.467,43.636 64.604,43.274 64.571,42.948 C 64.513,42.902 64.445,42.97 64.388,42.994 C 63.984,42.869 63.509,42.89 63.135,42.7 C 63.057,42.283 63.294,41.886 63.644,41.649 C 64.162,41.301 64.929,41.357 65.515,41.539 C 66.056,41.82 66.722,42.247 66.735,42.948 C 66.722,43.252 66.565,43.511 66.317,43.713 C 66.17,43.916 65.638,43.826 65.855,44.121 C 66.044,44.143 66.284,44.357 66.417,44.176 C 66.214,43.816 66.801,43.691 66.822,43.375 C 67.082,42.869 67.003,42.247 66.699,41.774" />
<path
   style="fill:#000000;fill-opacity:1"
   id="path253"
   d="M 65.899,25.43 C 65.066,26.152 63.801,26.715 62.718,26.186 C 62.595,26.006 62.414,25.849 62.436,25.623 C 62.572,24.9 63.293,24.461 63.938,24.303 C 64.614,24.112 65.268,24.133 65.876,24.427 L 66.023,24.631 C 66.182,24.912 66.079,25.195 65.899,25.43 M 66.265,24.694 C 66.085,24.016 65.341,23.724 64.72,23.632 C 64.562,23.556 64.37,23.724 64.269,23.556 C 64.133,23.69 63.919,23.657 63.749,23.724 C 63.028,23.938 62.307,24.614 62.217,25.403 C 62.117,25.989 62.498,26.531 62.984,26.835 C 63.885,27.241 64.913,27.016 65.689,26.463 C 66.141,25.979 66.525,25.403 66.265,24.694" />
<path
   style="fill:#000000;fill-opacity:1"
   id="path265"
   d="M 27.986,2.989 L 27.92,2.945 C 27.693,2.978 27.412,2.989 27.255,3.146 L 27.435,3.282 L 27.097,4.116 C 26.973,4.355 26.94,4.68 26.691,4.828 C 26.261,4.513 25.857,4.184 25.486,3.788 C 25.531,3.677 25.687,3.644 25.588,3.519 C 25.169,3.541 24.74,3.722 24.359,3.879 L 24.359,4.005 L 24.732,4.037 L 26.253,5.323 C 26.456,5.932 26.637,6.542 26.749,7.172 C 26.738,7.33 26.378,7.376 26.614,7.499 C 26.986,7.443 27.302,7.262 27.695,7.218 L 27.706,7.104 C 27.595,7.092 27.459,7.083 27.414,6.98 C 27.233,6.338 27.054,5.729 26.907,5.075 C 27.277,4.387 27.457,3.563 27.986,2.989" />
<path
   style="fill:#000000;fill-opacity:1"
   id="path277"
   d="M 44.283,6.108 C 44.035,6.549 43.752,7.011 43.244,7.181 C 43.078,7.214 42.839,7.237 42.728,7.09 C 42.186,6.616 42.263,5.76 42.444,5.117 C 42.67,4.496 43.078,3.776 43.762,3.504 C 44.045,3.493 44.326,3.584 44.45,3.854 C 44.778,4.575 44.485,5.411 44.283,6.108 M 44.764,3.792 C 44.482,3.421 44.031,3.298 43.545,3.309 C 42.779,3.467 42.092,4.143 41.888,4.876 C 41.697,5.689 41.775,6.568 42.407,7.164 C 42.78,7.458 43.38,7.536 43.828,7.369 C 44.549,7.051 45.036,6.285 45.181,5.53 C 45.316,4.943 45.194,4.267 44.764,3.792" />
<path
   style="fill:#000000;fill-opacity:1"
   id="path289"
   d="M 24.642,62.266 C 24.462,62.323 24.337,62.165 24.169,62.141 C 24.033,62.231 24.248,62.355 24.28,62.445 C 23.841,63.573 23.447,64.702 23.006,65.817 L 22.906,65.93 C 22.511,65.907 22.228,65.58 22.059,65.299 L 21.992,65.344 C 22.081,65.503 22.037,65.705 22.184,65.828 C 22.847,66.133 23.559,66.382 24.247,66.652 L 24.358,66.619 C 24.484,66.528 24.719,66.415 24.64,66.256 L 24.246,66.425 C 24.009,66.348 23.693,66.37 23.589,66.112 L 24.46,63.844 C 24.64,63.472 24.765,63.065 24.979,62.704 C 25.058,62.672 25.17,62.704 25.204,62.603 C 25.093,62.402 24.767,62.468 24.642,62.266" />
<path
   style="fill:#000000;fill-opacity:1"
   id="path301"
   d="M 51.236,60.04 C 51.204,59.85 51.146,59.645 51.001,59.477 L 50.955,59.725 C 50.649,59.725 50.357,59.77 50.108,59.917 C 49.86,60.087 49.736,60.367 49.694,60.65 C 49.736,60.966 49.725,61.303 50.031,61.496 C 50.718,61.867 51.665,61.913 52.081,62.713 C 52.116,62.894 52.183,63.097 52.026,63.231 C 51.766,63.503 51.562,63.097 51.36,63.097 C 51.439,63.344 51.631,63.537 51.744,63.761 L 51.799,63.761 C 51.755,63.469 52.106,63.56 52.263,63.469 C 52.476,63.322 52.566,63.097 52.601,62.837 C 52.668,62.33 52.329,61.891 51.947,61.62 C 51.349,61.169 50.335,61.247 50.132,60.38 C 50.142,60.199 50.29,60.007 50.471,59.927 C 50.739,59.77 50.989,59.974 51.236,60.04" />
<path
   style="fill:#000000;fill-opacity:1"
   id="path313"
   d="M 45.81,62.911 C 45.742,62.709 45.698,62.438 45.539,62.247 C 45.528,62.731 45.099,62.247 44.873,62.451 C 44.568,62.563 44.367,62.832 44.209,63.069 C 43.726,64.332 45.325,64.501 45.935,65.211 C 46.137,65.382 46.149,65.651 46.137,65.911 C 46.069,66.091 45.9,66.193 45.731,66.193 C 45.504,66.136 45.461,65.82 45.282,65.82 C 45.282,66.034 45.439,66.193 45.482,66.385 C 45.62,66.915 45.687,66.169 46.012,66.395 C 46.341,66.351 46.588,66.114 46.667,65.787 C 46.769,64.884 45.856,64.242 45.167,63.893 C 44.884,63.644 44.491,63.318 44.647,62.911 C 44.773,62.607 45.087,62.63 45.357,62.688 C 45.504,62.72 45.607,62.989 45.81,62.911" />
<path
   id="path13"
   style="fill:#000000;fill-opacity:1"
   d="M 56.369,33.996 C 55.592,35.258 54.667,36.43 53.595,37.558 C 49.796,39 45.928,40.276 42.06,41.616 L 41.995,41.616 C 41.961,41.426 41.961,41.211 41.995,41.02 C 44.328,39.565 46.662,38.02 49.008,36.533 L 53.981,33.32 C 54.804,32.834 55.571,32.192 56.472,31.82 C 56.699,31.82 56.922,31.92 57.048,32.147 C 57.203,32.878 56.674,33.408 56.369,33.996 M 53.674,33.166 C 49.776,35.668 45.973,38.206 42.028,40.641 L 41.961,40.62 L 41.995,39.932 L 46.29,35.94 L 55.286,27.643 C 55.546,27.495 55.919,27.27 56.19,27.551 C 56.392,27.8 56.246,28.16 56.236,28.443 C 55.771,30.188 54.667,31.666 53.674,33.166 M 52.772,29.601 L 48.59,33.48 L 42.76,38.835 L 42.028,39.476 L 41.961,39.466 L 41.961,38.383 L 43.992,35.746 L 48.478,29.927 C 50.034,27.808 51.736,25.778 53.303,23.692 C 53.471,23.454 53.8,23.625 53.877,23.828 C 54.226,24.628 53.82,25.475 53.742,26.275 C 53.448,27.404 53.211,28.528 52.772,29.601 M 51.171,25.802 C 49.435,28.329 47.496,30.73 45.657,33.122 C 44.439,34.654 43.266,36.311 42.027,37.787 L 41.96,37.742 L 41.994,35.546 L 45.477,29.626 L 50.325,21.293 C 50.573,20.932 50.777,20.356 51.319,20.301 C 51.452,20.278 51.6,20.402 51.622,20.527 C 51.927,22.252 51.611,24.18 51.171,25.802 M 48.757,20.091 C 48.723,21.341 48.771,22.594 48.568,23.823 L 44.169,31.332 L 42.003,34.974 C 41.939,34.939 41.939,34.861 41.939,34.794 C 41.352,34.748 40.686,34.827 40.124,34.713 C 40.629,33.541 41.125,32.369 41.757,31.242 C 42.118,30.948 42.365,30.543 42.209,30.045 C 44.069,25.931 45.906,21.804 47.846,17.7 C 48.016,17.553 48.298,17.632 48.454,17.779 C 48.757,18.478 48.69,19.313 48.757,20.091 M 42.008,30.456 C 41.863,31.199 41.015,31.38 40.566,31.864 L 39.46,32.609 C 39.259,32.609 39.382,32.304 39.348,32.181 C 40.173,31.414 41.175,30.66 41.514,29.578 C 41.76,29.791 41.997,30.095 42.008,30.456 M 41.269,29.172 C 41.28,29.748 41.019,30.311 40.548,30.694 L 40.457,30.694 C 39.543,28.858 37.806,27.256 36.048,26.184 L 35.992,26.084 L 36.003,24.258 C 36.478,24.832 37.176,25.023 37.739,25.428 C 39.091,26.489 40.299,27.752 41.269,29.172 M 37.537,24.953 C 37.076,24.716 36.49,24.557 36.217,24.073 C 36.217,23.713 36.622,23.566 36.848,23.363 L 38.947,21.863 C 39.194,21.648 39.262,21.344 39.364,21.062 L 39.465,21.267 L 39.444,23.339 C 39.274,23.678 38.957,23.869 38.697,24.118 C 38.315,24.434 37.954,24.76 37.537,24.953 M 38.385,20.223 C 37.867,20.133 37.382,19.975 36.874,19.782 C 36.695,19.692 36.492,19.603 36.369,19.398 L 36.369,19.14 C 37.551,18.351 38.792,17.708 40.042,17.043 C 41.249,16.457 42.459,15.836 43.494,14.823 L 43.551,14.9 L 43.538,16.806 C 43.255,17.393 42.625,17.608 42.186,18.002 C 40.979,18.846 39.728,19.648 38.385,20.223 M 42.832,14.982 C 42.516,15.186 42.213,15.568 41.873,15.457 L 41.547,15.208 C 40.87,14.815 40.115,14.62 39.392,14.33 C 39.37,13.866 39.392,13.494 39.448,13.009 C 40.376,13.134 41.232,13.449 42.111,13.698 C 42.495,13.89 42.922,13.967 43.249,14.284 C 43.397,14.578 43.013,14.791 42.832,14.982 M 36.316,19.724 C 37.036,20.265 37.94,20.333 38.773,20.592 C 38.919,20.696 39.054,20.785 39.044,20.977 C 38.853,21.495 38.276,21.707 37.871,22.025 C 37.283,21.867 36.753,21.619 36.236,21.315 C 35.986,21.19 35.965,20.919 35.953,20.67 L 36,19.464 C 36.191,19.297 36.157,19.656 36.316,19.724 M 39.392,33.133 C 39.788,32.805 40.194,32.569 40.621,32.332 C 40.294,33.178 39.977,34.034 39.529,34.789 C 39.459,34.823 39.391,34.756 39.425,34.699 C 39.495,34.146 39.369,33.662 39.392,33.133 M 41.583,35.198 L 41.583,47.194 L 40.838,47.918 L 40.838,38.975 L 39.609,38.952 L 39.585,48.729 L 38.966,48.729 L 38.966,38.975 L 37.726,38.952 L 37.716,48.729 L 37.027,48.729 L 37.027,38.975 L 35.765,38.952 L 35.753,48.931 L 35.112,49.575 L 35.112,38.975 L 33.87,38.952 L 33.859,48.729 L 33.284,48.729 L 33.284,38.975 L 32.044,38.952 L 32.009,48.729 L 31.31,48.729 L 31.31,38.975 L 30.07,38.952 L 30.038,48.04 L 29.236,47.24 L 29.236,35.198 L 41.583,35.198 z M 39.003,34.823 L 33.411,34.823 L 33.411,33.38 C 33.671,33.009 34.155,32.681 34.178,32.196 C 34.629,32.253 35.058,32.41 35.488,32.489 L 35.554,32.41 C 35.519,32.219 35.034,32.32 35.339,32.116 C 35.385,32.004 35.385,31.879 35.339,31.769 C 34.877,31.315 34.189,31.769 33.75,31.295 C 33.468,31.035 33.084,30.833 32.724,30.989 C 32.532,31.16 32.454,31.373 32.419,31.599 C 32.294,31.599 32.261,31.453 32.239,31.361 C 32.26,30.867 32.284,30.325 32.373,29.805 C 32.735,29.064 33.671,29.501 34.313,29.4 C 34.516,29.581 34.617,29.999 35.001,29.885 C 35.148,30.065 35.362,30.088 35.563,30.042 C 36.028,30.02 35.632,29.275 36.207,29.512 C 36.32,29.581 36.444,29.558 36.568,29.581 C 36.602,29.523 36.67,29.434 36.59,29.389 C 36.319,29.186 35.948,29.22 35.632,29.298 C 35.26,29.243 34.865,30.042 34.628,29.4 C 34.64,29.275 34.786,29.243 34.865,29.153 L 37.875,29.153 C 38.227,29.298 38.506,29.706 38.733,29.986 C 38.764,30.166 38.586,30.269 38.586,30.436 C 38.947,31.892 39.095,33.302 39.003,34.823 M 33.591,31.644 C 33.771,31.295 34.074,31.757 34.366,31.69 C 34.594,31.679 34.854,31.701 35.043,31.836 C 35.056,31.937 34.932,31.926 34.855,31.937 C 34.366,31.972 33.997,31.769 33.591,31.644 M 33.714,32.32 C 33.591,32.51 33.444,32.736 33.251,32.871 C 33.274,32.601 33.274,32.262 33.433,32.016 C 33.614,32.027 33.792,32.094 33.714,32.32 M 32.761,32.187 C 32.909,31.826 32.526,31.387 32.954,31.138 C 33.157,31.15 33.349,31.217 33.507,31.387 C 32.954,31.826 32.999,32.559 32.796,33.167 C 32.685,33.361 32.468,33.348 32.301,33.315 C 31.107,32.525 29.922,31.759 28.791,30.823 C 28.613,30.585 28.523,30.271 28.726,30.022 L 29.122,29.448 C 29.482,30.79 30.814,31.635 31.828,32.549 C 31.985,32.637 32.188,32.684 32.39,32.637 C 32.604,32.594 32.685,32.355 32.761,32.187 M 30.262,30.694 C 29.992,30.569 29.743,30.244 29.609,29.962 C 29.496,29.726 29.349,29.444 29.428,29.161 C 30.353,27.797 31.514,26.557 32.812,25.497 C 33.374,24.979 34.174,24.888 34.626,24.212 L 34.681,24.246 L 34.704,26.061 C 34.299,26.454 33.768,26.748 33.295,27.098 C 32.066,28.034 30.949,29.352 30.262,30.694 M 34.307,24.175 C 34.004,24.58 33.495,24.704 33.078,24.953 C 32.39,24.534 31.624,23.948 31.151,23.25 L 31.163,21.096 L 31.274,20.973 C 31.306,21.287 31.4,21.568 31.634,21.805 L 34.204,23.69 C 34.33,23.79 34.487,24.016 34.307,24.175 M 32.782,22.025 C 32.375,21.664 31.563,21.506 31.607,20.807 C 32.182,20.299 33.051,20.411 33.704,20.085 C 34.032,19.928 34.405,19.78 34.561,19.397 C 34.796,19.691 34.64,20.039 34.684,20.423 C 34.64,20.706 34.754,21.022 34.518,21.258 C 33.954,21.539 33.424,21.902 32.782,22.025 M 34.226,19.441 C 33.652,19.892 33.009,20.038 32.298,20.186 L 31.847,20.038 C 30.236,19.216 28.701,18.269 27.257,17.073 C 27.043,16.939 27.023,16.702 27.043,16.465 L 27.054,14.707 C 27.247,14.807 27.369,14.987 27.541,15.144 C 29.658,16.78 32.174,17.547 34.26,19.126 C 34.341,19.216 34.26,19.363 34.226,19.441 M 29.065,15.172 C 28.897,15.282 28.737,15.532 28.502,15.442 C 28.028,15.149 27.59,14.866 27.285,14.382 C 27.454,14.065 27.813,13.919 28.129,13.762 C 29.134,13.401 30.149,13.109 31.231,12.937 L 31.288,13.109 L 31.254,14.314 C 30.51,14.55 29.764,14.809 29.065,15.172 M 30.024,32.288 C 30.78,32.726 31.502,33.257 32.234,33.731 C 32.481,33.864 32.763,33.731 33,33.627 L 33.011,34.823 L 31.14,34.823 C 30.701,34.013 30.353,33.143 30.024,32.288 M 28.464,30.114 C 28.262,30.689 28.756,31.084 29.095,31.466 C 29.604,32.572 30.144,33.666 30.596,34.794 L 28.78,34.794 C 28.747,34.871 28.757,34.996 28.757,35.086 C 27.766,33.552 26.854,31.929 25.916,30.374 C 24.631,28.198 23.358,26.009 22.072,23.845 C 21.86,21.86 21.769,19.909 22.072,17.892 C 22.129,17.735 22.263,17.587 22.432,17.553 C 22.635,17.531 22.828,17.643 22.907,17.835 C 24.754,21.939 26.649,26.009 28.464,30.114 M 26.83,32.276 C 27.505,33.402 28.194,34.519 28.827,35.657 L 28.827,37.9 C 27.866,36.751 26.909,35.546 26.062,34.405 L 22.556,29.895 L 19.5,25.905 C 19.117,24.18 18.689,22.196 19.083,20.425 C 19.162,20.234 19.41,20.234 19.58,20.3 C 19.883,20.425 20.086,20.763 20.243,21.045 L 26.83,32.276 z M 23.077,31.062 L 28.061,37.468 L 28.784,38.413 L 28.784,39.552 L 28.557,39.439 C 25.605,36.745 22.671,34.106 19.729,31.378 L 17.844,29.642 C 17.282,28.141 16.91,26.53 16.639,24.896 C 16.594,24.523 16.548,23.992 16.876,23.678 C 16.978,23.531 17.18,23.554 17.303,23.656 C 19.255,26.068 21.15,28.604 23.077,31.062 M 20.769,32.62 L 24.966,36.444 L 28.764,39.971 L 28.785,40.716 C 28.582,40.627 28.381,40.537 28.189,40.377 C 24.446,37.999 20.646,35.665 16.913,33.218 C 15.875,31.539 14.511,29.947 14.297,27.896 C 14.31,27.693 14.467,27.502 14.67,27.457 C 15.053,27.446 15.336,27.67 15.583,27.874 L 20.769,32.62 z M 16.682,33.326 L 17.55,33.889 L 22.163,36.831 L 27.134,39.976 C 27.676,40.328 28.24,40.654 28.746,41.014 L 28.768,41.691 C 24.868,40.328 20.886,39.041 16.987,37.62 C 15.643,36.166 14.404,34.543 13.547,32.841 C 13.437,32.626 13.526,32.354 13.547,32.141 C 13.65,31.88 13.909,31.825 14.147,31.803 C 15.036,32.2 15.836,32.832 16.682,33.326 M 28.83,42.014 L 28.83,42.667 C 25.617,42.33 22.562,41.867 19.382,41.461 C 17.648,40.797 15.864,39.849 14.817,38.113 C 14.771,37.955 14.748,37.774 14.828,37.617 C 15.099,37.291 15.56,37.358 15.899,37.492 C 20.171,39.07 24.534,40.435 28.83,42.014 M 18.802,42.106 C 18.869,41.949 18.971,41.79 19.152,41.745 C 22.354,42.15 25.601,42.535 28.78,42.952 L 28.78,44.158 L 24.721,44.158 C 24.654,44.168 24.519,44.148 24.407,44.158 L 22.072,44.158 C 21.024,43.808 20.019,43.346 19.129,42.68 C 18.971,42.512 18.802,42.354 18.802,42.106 M 28.814,45.172 L 28.814,47.326 L 30.199,48.702 C 30.143,48.836 29.918,49.039 30.075,49.14 L 30.313,48.857 C 30.459,48.904 30.503,49.152 30.684,49.061 C 30.066,50.325 28.982,51.405 27.931,52.343 C 27.742,52.343 27.763,52.577 27.582,52.613 C 27.256,52.771 26.929,53.063 26.559,52.962 C 26.445,52.68 26.511,52.33 26.649,52.084 C 27.087,52.037 27.459,51.846 27.821,51.609 C 28.373,51.193 28.891,50.798 29.219,50.167 L 29.173,50.143 C 28.462,50.831 27.697,51.631 26.694,51.699 C 26.569,51.677 26.456,51.575 26.432,51.451 C 26.455,51 26.636,50.606 26.818,50.233 C 26.681,50.188 26.649,50.392 26.536,50.47 C 26.119,50.809 26.322,51.53 25.791,51.699 C 25.566,51.924 25.432,52.195 25.409,52.5 C 25.083,52.319 25.251,51.835 24.834,51.699 C 24.586,51.733 24.439,51.44 24.28,51.293 C 24.145,51.068 23.873,50.911 23.591,50.99 C 23.389,50.911 23.175,50.798 22.94,50.853 C 22.736,50.853 22.544,51.348 22.376,51 C 22.219,50.763 22.613,50.718 22.648,50.515 C 22.712,50.278 22.454,49.907 22.782,49.795 C 23.154,49.725 23.333,50.042 23.617,50.2 C 24.101,50.188 24.44,50.504 24.824,50.752 C 25.466,50.785 25.691,50.064 26.312,50.009 C 26.446,49.907 26.682,49.761 26.715,49.591 L 26.682,49.58 C 26.456,49.681 26.276,49.872 26.038,49.919 C 26.038,49.827 26.322,49.725 26.433,49.591 C 26.56,49.388 26.875,49.219 26.875,48.959 C 26.456,49.376 25.961,49.872 25.317,49.795 C 24.991,49.432 25.409,48.982 25.566,48.598 C 26.433,47.258 27.562,46.255 28.814,45.172 M 22.74,51.234 C 22.922,51.11 23.179,51.1 23.361,51.223 C 23.764,51.63 23.133,51.957 22.999,52.272 C 22.819,52.542 22.651,53.028 22.255,52.981 C 22.087,52.96 22.008,52.789 21.883,52.667 C 21.804,52.056 22.447,51.719 22.74,51.234 M 22.17,51.571 L 21.981,51.751 C 20.401,50.443 18.708,48.808 18.202,46.858 C 19.049,48.199 20.163,49.677 21.484,50.759 C 21.551,50.782 21.584,50.692 21.629,50.656 C 21.731,50.973 21.786,51.402 22.17,51.571 M 22.073,50.027 L 21.959,50.14 C 21.771,49.824 21.814,49.385 21.601,49.081 C 21.509,48.662 21.534,48.2 21.149,47.963 C 21.071,48.2 21.274,48.45 21.307,48.719 C 21.386,49.295 21.568,49.824 21.771,50.344 L 21.679,50.513 C 21.555,49.419 20.303,48.719 20.202,47.569 L 20.19,45.709 L 20.302,45.359 C 20.968,46.306 21.587,47.288 21.995,48.335 C 22.13,48.878 22.209,49.51 22.073,50.027 M 18.83,47.224 C 18.505,47.077 18.425,46.648 18.097,46.513 C 17.996,45.881 17.568,45.396 17.466,44.765 C 17.432,44.754 17.41,44.754 17.389,44.721 C 17.308,44.912 17.377,45.171 17.422,45.384 C 17.827,46.129 17.986,46.998 18.269,47.787 C 18.053,47.81 17.848,47.684 17.669,47.506 C 17.308,47.043 17.286,46.434 17.128,45.87 C 17.004,45.082 16.925,44.112 17.33,43.424 L 17.466,43.548 C 17.861,44.799 18.763,45.87 18.83,47.224 M 20.108,50.571 C 20.276,50.648 20.514,50.615 20.626,50.819 C 20.097,50.864 19.623,50.583 19.173,50.345 C 19.149,50.525 19.353,50.648 19.499,50.741 C 19.949,50.978 20.422,51.145 20.964,51.145 L 21.326,51.495 C 20.389,51.676 19.454,51.259 18.709,50.673 L 17.526,49.037 L 17.559,48.958 C 18.586,49.082 19.104,50.368 20.108,50.571 M 23.054,52.707 C 23.337,52.381 23.506,51.861 23.981,51.738 C 24.15,51.76 24.374,51.76 24.419,51.987 C 24.498,52.143 24.419,52.346 24.339,52.481 L 23.483,53.485 C 23.337,53.553 23.168,53.519 23.054,53.427 C 22.818,53.226 22.92,52.943 23.054,52.707 M 23.894,53.42 C 24.098,53.06 24.415,52.722 24.774,52.497 C 24.978,52.461 25.181,52.643 25.214,52.823 C 25.214,53.252 24.607,53.342 24.493,53.771 C 24.402,53.929 24.166,53.929 24.043,53.849 C 23.894,53.771 23.795,53.578 23.894,53.42 M 24.987,53.533 C 25.113,53.364 25.35,53.364 25.428,53.161 C 25.505,53.329 25.505,53.566 25.662,53.702 C 26.487,54.378 27.354,55.134 28.2,55.798 C 28.561,56.059 28.99,56.159 29.349,56.352 C 29.427,56.284 29.349,56.216 29.371,56.149 C 29.912,56.272 30.624,55.856 31.042,56.318 C 31.074,56.544 30.938,56.745 30.759,56.904 C 30.5,57.12 30.173,56.96 29.834,56.949 C 29.168,56.824 28.334,56.949 27.714,56.633 C 26.869,55.628 25.797,54.875 24.76,54.096 C 24.583,53.892 24.843,53.702 24.987,53.533 M 33.209,49.091 C 32.499,50.938 31.869,52.811 31.035,54.603 C 30.911,54.536 30.867,54.377 30.774,54.265 C 31.418,52.519 32.184,50.816 32.916,49.091 L 33.209,49.091 z M 32.277,39.206 L 33.01,39.206 L 33.01,48.711 L 32.277,48.711 L 32.277,39.206 z M 27.769,54.131 C 28.096,54.673 28.481,55.203 28.785,55.766 C 27.556,55.564 27.962,54.065 27.286,53.31 C 27.376,53.253 27.488,53.107 27.646,53.129 C 28.344,53.793 29.008,54.482 29.066,55.475 C 28.696,54.989 28.176,54.459 27.814,53.941 C 27.679,53.941 27.792,54.053 27.769,54.131 M 30.287,48.253 L 30.287,39.198 L 31.021,39.198 L 31.021,48.703 C 30.659,48.861 30.534,48.41 30.287,48.253 M 31.223,49.118 L 32.382,49.118 C 31.739,50.82 30.962,52.479 30.32,54.192 C 30.197,54.632 30.818,54.801 30.694,55.195 C 30.682,55.365 30.614,55.579 30.423,55.614 C 30.197,55.569 29.892,55.693 29.645,55.614 C 29.52,54.553 28.911,53.641 28.112,52.884 L 28.112,52.794 C 29.351,51.756 30.422,50.494 31.223,49.118 M 30.999,55.678 C 31.203,55.048 31.405,54.395 31.689,53.784 C 32.319,52.23 32.928,50.685 33.536,49.117 C 33.707,49.117 33.931,49.094 33.989,49.298 L 32.128,56.345 C 31.89,56.482 31.677,56.245 31.472,56.132 C 31.362,55.939 31.203,55.758 30.999,55.678 M 32.351,56.801 C 32.97,54.401 33.56,51.942 34.246,49.541 C 34.337,49.541 34.414,49.665 34.483,49.733 C 34.065,52.236 33.615,54.661 33.198,57.139 C 33.162,57.232 32.995,57.197 32.927,57.152 C 32.724,57.073 32.509,56.995 32.351,56.801 M 34.116,48.841 L 34.116,39.226 L 34.847,39.226 L 34.847,49.575 L 34.116,48.841 z M 33.454,56.908 C 33.917,54.657 34.131,52.243 34.729,50.055 C 34.774,50.132 34.854,50.144 34.92,50.224 L 35.134,50.032 L 36.059,55.31 C 36.171,56.098 36.374,56.864 36.409,57.666 C 35.903,58.026 35.417,58.274 34.807,58.319 C 34.299,58.229 33.872,58.004 33.444,57.722 C 33.251,57.462 33.478,57.157 33.454,56.908 M 35.429,49.775 L 35.633,49.571 C 36.321,51.961 36.917,54.443 37.504,56.843 C 37.278,57.036 37.04,57.182 36.737,57.193 L 36.648,57.002 C 36.24,54.589 35.8,52.197 35.429,49.775 M 37.782,56.329 C 37.127,53.985 36.529,51.684 35.954,49.295 C 35.977,49.124 36.214,49.124 36.395,49.124 C 37.206,51.288 38.095,53.399 38.863,55.575 C 38.705,56.015 38.176,56.262 37.782,56.329 M 36.029,39.206 L 36.762,39.206 L 36.762,48.711 L 36.029,48.711 L 36.029,39.206 z M 38.813,54.566 C 38.07,52.785 37.37,50.97 36.706,49.133 L 37.078,49.133 C 37.731,50.846 38.429,52.536 39.119,54.206 C 39.051,54.353 38.972,54.532 38.813,54.566 M 37.945,39.206 L 38.689,39.206 L 38.689,48.711 L 37.945,48.711 L 37.945,39.206 z M 39.858,39.194 L 40.588,39.194 L 40.588,48.148 C 40.342,48.338 40.184,48.711 39.858,48.699 L 39.858,39.194 z M 40.083,49.118 C 40.242,49.118 40.318,48.769 40.489,48.971 C 40.523,49.039 40.568,49.118 40.649,49.129 C 40.783,48.971 40.523,48.894 40.545,48.747 L 40.523,48.747 L 41.954,47.28 L 41.954,45.26 C 43.341,46.435 44.877,47.765 45.472,49.433 C 45.493,49.592 45.405,49.694 45.293,49.773 C 44.649,49.807 44.232,49.321 43.804,48.948 C 43.759,49.106 43.985,49.254 44.075,49.399 L 44.404,49.738 C 44.279,49.726 44.084,49.514 43.927,49.558 C 44.155,49.952 44.605,50.122 45,50.279 L 45.856,51.463 C 45.968,51.565 46.162,51.542 46.319,51.509 C 46.216,51.688 46.172,51.937 46.059,52.129 C 45.778,52.153 45.493,52.298 45.337,52.557 L 45.292,52.557 C 45.247,52.096 44.999,51.688 44.559,51.463 C 44.48,50.968 44.232,50.449 43.836,50.168 C 44.029,50.538 44.188,51.001 44.208,51.418 C 44.165,51.531 44.082,51.622 43.983,51.654 C 42.945,51.622 42.213,50.799 41.492,50.1 L 41.423,50.179 C 42.034,51.058 42.913,51.892 43.96,52.048 C 44.082,52.275 44.165,52.546 44.107,52.827 C 43.712,53.177 43.306,52.637 42.945,52.501 C 42.877,52.331 42.698,52.309 42.585,52.22 C 41.651,51.294 40.624,50.302 40.083,49.118 M 44.638,53.35 C 44.56,53.553 44.741,53.914 44.414,53.97 C 43.038,54.567 41.696,55.211 40.31,55.774 C 40.173,55.843 40.083,55.685 40.049,55.584 C 39.97,55.401 40.206,55.324 40.31,55.278 C 41.717,54.567 43.206,54.005 44.638,53.35 M 44.513,52.854 C 44.467,52.629 44.432,52.348 44.401,52.099 L 44.401,51.976 C 44.603,52.032 44.635,52.291 44.762,52.448 C 44.762,52.55 44.805,52.65 44.794,52.753 C 44.704,52.821 44.626,52.878 44.513,52.854 M 41.392,56.519 L 44.573,54.086 C 44.777,54.086 44.822,54.345 44.923,54.469 C 43.818,55.314 42.802,56.171 41.686,56.96 C 41.565,57.006 41.381,56.904 41.36,56.769 L 41.392,56.519 z M 45.104,53.996 L 45.048,54.04 C 44.938,53.882 44.924,53.702 44.98,53.51 C 44.98,53.387 45.092,53.319 45.207,53.263 C 45.251,53.342 45.251,53.51 45.251,53.6 C 45.185,53.724 45.07,53.837 45.104,53.996 M 44.364,56.048 C 44.633,55.361 45.164,54.798 45.569,54.154 C 45.681,54.166 45.771,54.244 45.874,54.323 L 45.761,54.594 C 45.355,55.102 45.049,55.733 44.622,56.182 C 44.485,56.217 44.407,56.139 44.364,56.048 M 45.646,52.838 C 45.598,52.738 45.725,52.602 45.828,52.579 C 45.836,52.637 45.87,52.681 45.87,52.762 L 45.646,52.838 z M 45.523,53.627 C 45.488,53.49 45.523,53.332 45.612,53.219 C 45.77,53.018 46.005,53.084 46.231,53.13 C 46.694,53.332 46.795,53.941 47.247,54.19 C 47.337,54.303 47.415,54.472 47.337,54.629 C 47.18,54.832 46.93,54.978 46.717,54.832 C 46.459,54.651 46.491,54.257 46.176,54.168 C 45.928,54.087 45.591,53.941 45.523,53.627 M 46.167,52.765 C 46.088,52.687 46.155,52.562 46.224,52.486 C 46.326,52.327 46.505,52.259 46.688,52.247 C 47.216,52.156 47.319,52.744 47.644,53.048 C 47.859,53.285 48.218,53.409 48.218,53.77 C 48.196,53.973 48.095,54.219 47.859,54.265 L 47.632,54.255 C 47.013,53.825 46.889,53.06 46.167,52.765 M 47.296,52.113 C 47.139,52.067 47.173,51.956 47.197,51.831 C 47.273,51.696 47.432,51.63 47.554,51.549 C 47.838,51.504 48.075,51.673 48.221,51.91 C 48.434,52.203 48.345,52.676 48.728,52.869 C 48.919,52.959 48.932,53.196 48.875,53.354 C 48.795,53.444 48.728,53.534 48.627,53.59 C 48.064,53.207 47.636,52.676 47.296,52.113 M 48.567,52.052 L 48.339,51.655 C 48.408,51.567 48.52,51.522 48.646,51.5 C 48.667,51.6 48.646,51.759 48.736,51.849 C 49.016,51.78 49.106,51.487 49.176,51.25 L 50.514,50.608 C 50.627,50.528 50.538,50.37 50.595,50.281 C 51.059,50.281 51.462,50.158 51.924,50.169 C 51.8,50.586 51.396,50.924 51.156,51.284 C 50.922,51.25 50.697,50.937 50.46,51.195 C 49.83,51.5 49.207,51.804 48.567,52.052 M 50.748,49.79 C 50.546,49.813 50.274,49.802 50.185,49.993 C 50.343,50.365 49.937,50.446 49.713,50.556 C 49.508,50.578 49.26,50.849 49.09,50.644 L 49.09,50.532 C 50.138,49.754 51.153,49.023 52.193,48.268 L 52.228,47.894 C 52.553,47.715 52.915,47.614 53.288,47.511 L 53.297,47.545 C 53.128,47.907 53.051,48.278 52.789,48.594 C 52.656,48.582 52.531,48.47 52.428,48.56 L 50.748,49.79 z M 48.74,50.204 C 48.592,50.25 48.503,50.069 48.377,50.049 C 49.087,48.796 50.035,47.588 50.791,46.348 C 50.824,46.181 50.621,45.999 50.745,45.84 C 51.105,45.626 51.412,45.301 51.771,45.131 L 51.829,45.153 L 51.557,46.484 L 51.187,46.562 C 50.362,47.77 49.55,48.998 48.74,50.204 M 48.165,50.391 C 48.47,50.347 48.65,50.583 48.83,50.786 C 48.931,50.922 48.954,51.147 48.965,51.305 C 48.876,51.339 48.908,51.204 48.862,51.18 C 48.638,50.922 48.186,51.08 48.108,50.697 C 48.119,50.593 48.039,50.437 48.165,50.391 M 48.255,51.324 C 48.096,51.412 47.919,51.175 47.738,51.175 C 47.356,51.175 47.05,51.356 46.689,51.312 C 46.969,50.962 47.172,50.319 47.738,50.431 L 47.817,50.556 C 47.715,50.917 48.19,51.03 48.255,51.324 M 46.909,51.698 C 46.884,51.867 46.805,52.014 46.603,51.98 C 46.536,51.992 46.501,51.945 46.501,51.913 C 46.546,51.755 46.749,51.608 46.909,51.698 M 41.96,42.011 C 43.583,41.367 45.217,40.825 46.853,40.239 L 52.466,38.279 C 53.396,37.928 54.283,37.59 55.242,37.32 C 55.479,37.342 55.761,37.387 55.85,37.646 C 55.771,38.56 54.948,39.214 54.259,39.765 C 53.314,40.522 52.242,41.052 51.136,41.459 C 48.061,41.908 45.037,42.214 41.959,42.63 L 41.959,42.011 L 41.96,42.011 z M 41.96,42.945 L 44.722,42.562 L 50.654,41.817 C 51.036,41.84 51.578,41.467 51.782,41.997 C 51.747,42.641 51.06,42.842 50.654,43.157 C 49.923,43.463 49.279,43.958 48.5,44.093 L 41.96,44.093 L 41.96,42.945 z M 57.201,31.709 C 56.546,30.988 55.848,31.913 55.228,32.183 C 55.07,32.261 54.901,32.42 54.743,32.376 C 55.532,30.988 56.536,29.715 56.659,28.046 C 56.672,27.639 56.546,27.244 56.184,27.041 C 55.95,26.838 55.634,27.019 55.418,27.122 C 54.764,27.674 54.203,28.349 53.49,28.879 L 53.445,28.846 C 53.649,28.001 53.941,27.188 54.121,26.308 C 54.291,25.373 54.73,24.132 53.976,23.332 C 53.759,23.129 53.479,23.231 53.241,23.298 C 52.759,23.839 52.351,24.426 51.901,24.932 L 51.833,24.866 C 52.035,23.455 52.317,21.89 52.025,20.423 C 51.879,20.187 51.629,19.917 51.359,19.917 C 51.032,19.871 50.819,20.096 50.625,20.299 C 50.107,21.101 49.693,21.968 49.128,22.711 C 49.128,21.021 49.341,19.171 48.799,17.571 C 48.563,17.255 48.214,17.041 47.82,17.085 C 47.638,17.211 47.448,17.356 47.325,17.559 C 46.523,19.329 45.7,21.065 44.913,22.837 C 44.71,23.175 44.642,23.601 44.393,23.919 C 43.592,25.746 42.825,27.583 41.937,29.364 L 41.856,29.364 C 41.371,28.766 41.009,28.124 40.527,27.605 C 39.758,26.669 38.901,26.027 38.01,25.248 C 38.629,24.696 39.42,24.246 39.825,23.49 L 39.836,21.19 C 39.836,20.94 39.668,20.795 39.499,20.626 C 39.354,20.548 39.104,20.548 39.138,20.354 C 40.762,19.611 42.215,18.507 43.729,17.435 C 44.189,16.883 43.91,16.07 43.952,15.361 C 43.987,14.977 44.021,14.56 43.784,14.233 C 42.498,13.082 40.716,12.871 39.07,12.497 L 38.934,12.565 C 38.901,13.265 38.901,14.155 38.934,14.831 C 39.758,15.145 40.695,15.225 41.391,15.845 L 40.91,16.161 C 39.082,17.008 37.244,17.762 35.655,19.071 C 35.237,19.656 35.498,20.502 35.418,21.122 C 35.733,21.89 36.648,22.025 37.255,22.408 C 36.681,22.97 35.882,23.197 35.486,23.931 C 35.407,24.741 35.472,25.531 35.498,26.342 L 35.959,26.782 C 37.651,27.763 39.274,29.284 40.073,31.067 L 39.262,31.754 L 39.184,31.732 C 39.081,31.292 39.002,30.899 38.879,30.481 C 38.879,30.244 39.159,30.12 39.069,29.861 C 38.776,29.533 38.496,29.117 38.112,28.879 C 37.085,28.677 35.936,28.801 34.806,28.755 L 34.514,28.993 C 33.883,29.004 33.229,28.958 32.631,29.014 C 32.349,29.218 32.101,29.444 31.943,29.738 L 31.821,31.348 C 31.832,31.732 32.305,31.788 32.453,32.093 C 32.395,32.195 32.349,32.376 32.192,32.376 C 31.617,32.059 31.064,31.574 30.533,31.135 L 30.522,31.011 C 31.131,29.601 32.429,28.271 33.679,27.381 C 34.109,26.918 34.775,26.861 35.078,26.264 L 35.088,24.527 C 35.28,23.365 33.906,23.074 33.297,22.396 L 33.342,22.328 C 33.927,21.991 34.751,21.878 35.088,21.19 C 35.055,20.502 35.269,19.691 34.92,19.071 C 33.297,17.728 31.323,16.951 29.474,16.025 C 29.362,15.924 29.159,15.913 29.124,15.744 C 29.858,15.182 30.77,15.056 31.616,14.786 C 31.741,14.031 31.605,13.287 31.661,12.53 L 31.628,12.486 C 30.455,12.541 29.361,12.936 28.269,13.23 C 27.683,13.567 26.915,13.739 26.588,14.425 L 26.575,16.872 C 26.588,17.074 26.745,17.233 26.869,17.379 C 28.359,18.485 29.858,19.578 31.459,20.378 C 31.188,20.548 30.906,20.717 30.726,20.988 C 30.681,21.764 30.693,22.555 30.693,23.365 C 31.043,24.166 31.911,24.696 32.575,25.26 C 32.271,25.531 31.911,25.779 31.617,26.027 C 30.456,27.03 29.553,28.169 28.719,29.41 C 28.688,29.431 28.64,29.41 28.629,29.374 L 25.991,23.58 C 25.449,22.375 24.887,21.178 24.333,19.95 C 23.94,19.059 23.556,18.18 23.082,17.334 C 22.913,17.154 22.687,16.996 22.406,17.041 C 22.157,17.175 21.84,17.311 21.74,17.605 C 21.424,18.618 21.38,19.893 21.403,20.907 C 21.424,21.506 21.457,22.171 21.457,22.769 L 20.455,21.144 C 20.105,20.692 19.914,19.848 19.147,19.905 C 18.899,19.984 18.696,20.141 18.573,20.378 C 18.289,21.912 18.505,23.569 18.82,25.092 L 18.775,25.125 C 18.246,24.527 17.837,23.919 17.332,23.332 C 17.152,23.252 16.915,23.152 16.723,23.275 C 16.329,23.455 16.17,23.931 16.149,24.336 C 16.206,25.869 16.713,27.322 17.095,28.755 C 17.095,28.833 17.206,28.936 17.084,28.969 L 15.032,27.109 L 14.547,27.019 C 14.253,27.098 13.983,27.357 13.905,27.661 C 13.791,29.568 15.021,30.988 15.877,32.545 L 15.842,32.577 C 15.154,32.261 14.592,31.608 13.791,31.53 C 13.611,31.585 13.386,31.631 13.252,31.834 C 12.946,32.273 13.026,32.871 13.252,33.311 C 13.982,34.675 14.906,35.96 15.957,37.166 L 15.91,37.244 L 15.256,37.088 C 14.873,37.065 14.547,37.188 14.343,37.493 C 14.232,37.708 14.187,37.934 14.265,38.181 C 14.907,39.478 16.249,40.561 17.556,41.191 C 17.885,41.361 18.28,41.485 18.574,41.721 C 18.483,41.856 18.358,42.004 18.358,42.186 C 18.358,42.646 18.652,42.985 19.024,43.211 C 19.983,43.818 20.963,44.372 22.068,44.63 L 28.516,44.665 L 28.708,44.71 C 27.796,45.622 26.667,46.49 25.822,47.528 C 25.324,48.215 24.819,48.938 24.74,49.828 C 24.74,50.055 24.965,50.189 25.088,50.315 C 25.066,50.393 24.987,50.381 24.943,50.393 C 24.683,50.179 24.344,50.065 24.051,49.895 C 23.655,50.019 23.476,49.569 23.16,49.469 C 22.968,49.411 22.755,49.446 22.596,49.377 C 22.608,48.894 22.517,48.339 22.315,47.9 C 21.83,46.762 21.221,45.633 20.275,44.71 C 20.172,44.675 20.025,44.675 19.97,44.788 C 19.812,45.421 19.653,46.151 19.777,46.762 C 19.621,47.675 19.857,48.612 20.533,49.287 L 20.477,49.31 C 20.025,48.825 19.541,48.249 19.292,47.618 C 19.271,46.842 19.046,46.108 18.763,45.421 C 18.142,44.552 17.974,43.548 17.365,42.703 C 17.039,42.703 16.947,43.108 16.767,43.311 C 16.304,44.754 16.531,46.401 17.152,47.721 C 17.41,48.171 17.896,48.238 18.3,48.386 L 18.841,49.22 C 18.572,49.05 18.357,48.769 18.041,48.701 C 17.577,48.69 17.151,48.093 16.756,48.464 C 16.712,48.599 16.722,48.747 16.801,48.847 C 17.522,49.784 17.995,50.979 19.103,51.622 C 19.857,51.847 20.635,52.242 21.502,52.004 C 21.581,52.038 21.525,52.106 21.547,52.153 C 21.358,52.479 21.456,52.917 21.672,53.177 C 21.863,53.357 22.113,53.491 22.394,53.436 C 22.608,53.774 22.992,54.078 23.454,54 C 23.645,54.248 23.973,54.361 24.288,54.338 C 25.428,55.173 26.533,56.108 27.58,57.101 L 28.166,57.225 C 29.272,57.124 30.861,58.115 31.449,56.694 C 31.572,56.719 31.696,56.719 31.787,56.843 C 31.865,57.62 32.879,57.325 33.038,58.036 C 33.703,58.488 34.47,58.882 35.316,58.724 C 35.855,58.488 36.566,58.386 36.882,57.788 C 37.095,57.438 37.58,57.505 37.852,57.179 C 38.009,56.503 38.799,56.582 39.183,56.063 C 39.498,55.736 39.159,55.365 39.116,55.026 C 39.283,54.7 39.679,54.441 39.51,54.01 C 38.856,52.389 38.1,50.774 37.536,49.129 C 38.178,49.141 38.834,49.095 39.443,49.176 C 40.322,50.549 41.404,51.959 42.802,52.974 C 43.004,53.087 43.264,53.21 43.409,53.357 C 42.261,53.967 41.008,54.384 39.835,54.947 C 39.7,55.026 39.509,55.185 39.52,55.376 C 39.499,55.714 39.701,55.995 39.925,56.222 C 40.479,56.345 40.908,55.916 41.39,55.861 C 41.244,56.097 40.996,56.142 40.84,56.357 C 40.683,56.706 40.874,57.056 41.119,57.305 C 41.291,57.427 41.493,57.438 41.719,57.394 L 43.748,55.861 L 43.861,55.861 C 43.895,56.018 43.793,56.153 43.872,56.278 C 44.007,56.459 44.187,56.615 44.392,56.661 C 44.619,56.694 44.852,56.638 45,56.459 C 45.395,55.952 45.664,55.365 46.082,54.869 C 46.365,55.094 46.613,55.488 47.04,55.331 C 47.335,55.263 47.558,55.015 47.717,54.745 C 48.124,54.722 48.46,54.338 48.619,53.978 C 48.947,53.854 49.284,53.594 49.307,53.21 C 49.339,52.851 49.161,52.59 48.889,52.411 C 49.363,52.153 49.891,51.903 50.423,51.678 C 50.738,51.395 51.021,51.847 51.301,51.767 L 52.833,49.862 L 52.891,49.67 C 52.598,49.614 52.249,49.726 51.955,49.705 L 51.82,49.67 C 52.001,49.457 52.281,49.287 52.507,49.129 C 52.676,49.141 52.833,49.254 52.992,49.185 L 54.119,46.875 L 54.156,46.728 C 53.409,46.975 52.676,47.247 51.943,47.517 C 51.595,47.562 51.741,47.822 51.707,48.081 L 50.028,49.266 L 49.983,49.22 C 50.433,48.452 50.952,47.721 51.481,46.975 C 51.638,46.908 51.899,46.998 52.001,46.842 C 52.147,45.928 52.307,45.002 52.397,44.101 C 51.596,44.574 50.953,45.26 50.138,45.724 C 50.074,45.952 50.342,46.074 50.309,46.312 C 49.464,47.495 48.697,48.722 47.851,49.895 L 47.387,50.019 C 46.723,50.144 46.723,50.956 46.182,51.147 C 45.824,50.991 45.619,50.573 45.506,50.223 C 45.54,50.155 45.618,50.132 45.663,50.077 C 45.789,49.943 45.823,49.75 45.8,49.57 C 45.26,47.597 43.488,46.065 41.955,44.778 L 41.9,44.63 L 47.54,44.597 C 48.495,44.742 49.263,44.348 50.052,44.012 C 50.774,43.503 51.767,43.266 52.15,42.375 C 52.207,42.137 52.15,41.845 51.993,41.654 C 53.042,41.045 54.16,40.571 55.093,39.647 C 55.703,39.061 56.359,38.351 56.255,37.527 C 56.097,37.211 55.792,37.042 55.466,37.009 C 55.171,36.975 54.89,37.166 54.654,37.055 C 55.229,36.219 55.973,35.451 56.468,34.608 C 56.875,33.705 57.99,32.746 57.201,31.709M 26.219,52.419 C 26.209,52.682 26.118,52.997 26.246,53.239 C 26.347,53.46 26.558,53.421 26.731,53.471 C 26.906,53.714 27.014,53.977 27.097,54.26 C 26.968,54.291 26.886,54.069 26.785,54.018 C 26.428,53.694 25.787,53.35 25.971,52.712 C 25.88,52.52 26.375,51.721 26.219,52.419" />

<ellipse
   style="fill:none;stroke:#000000;stroke-width:0.94300002;stroke-opacity:1"
   sodipodi:ry="27.141001"
   sodipodi:rx="26.85"
   sodipodi:cy="35.243"
   sodipodi:cx="34.896999"
   id="ellipse349"
   ry="27.141001"
   rx="26.85"
   cy="35.243"
   cx="34.896999" />
<ellipse
   style="fill:none;stroke:#000000;stroke-width:0.472;stroke-opacity:1"
   sodipodi:ry="35.037998"
   sodipodi:rx="34.661999"
   sodipodi:cy="35.273998"
   sodipodi:cx="34.897999"
   id="ellipse361"
   ry="35.037998"
   rx="34.661999"
   cy="35.273998"
   cx="34.897999" />
</svg>